M48
INCH,TZ
T1C0.012
T2C0.015
T3C0.024
T4C0.035
T5C0.040
T6C0.063
T7C0.071
T8C0.118
%
G90
G05
T1
X034252Y-035827
X034646Y-021654
X034646Y-027953
X034646Y-029528
X034646Y-031890
X034646Y-033858
X034646Y-045276
X034646Y-047244
X034646Y-050787
X034646Y-053543
X034646Y-055906
X034754Y-023051
X034754Y-024173
X034754Y-026555
X035039Y-038189
X035039Y-040157
X035039Y-042520
X035158Y-029626
X035158Y-030217
X035158Y-030807
X035158Y-031398
X035650Y-034646
X035827Y-056693
X035887Y-029239
X035957Y-044873
X036024Y-030512
X036091Y-028558
X036282Y-029475
X036331Y-047673
X036466Y-027888
X036533Y-031200
X036614Y-021654
X036650Y-049740
X036650Y-050114
X036660Y-047711
X036700Y-026100
X036828Y-043710
X036900Y-023051
X036900Y-032035
X036909Y-027973
X036909Y-033445
X037004Y-029412
X037147Y-049419
X037158Y-030225
X037158Y-031098
X037178Y-032717
X037205Y-028085
X037402Y-032480
X037475Y-028632
X037500Y-027973
X037500Y-033445
X037512Y-050134
X037623Y-032846
X037638Y-045956
X037889Y-028646
X038024Y-046649
X038038Y-047523
X038091Y-027973
X038125Y-029437
X038164Y-031410
X038211Y-027139
X038220Y-028541
X038289Y-030372
X038324Y-049014
X038357Y-033371
X038468Y-032033
X038583Y-028937
X038583Y-056693
X038614Y-047083
X038614Y-047870
X038681Y-027973
X038976Y-028540
X039036Y-030278
X039123Y-026424
X039172Y-031390
X039272Y-027973
X039370Y-021654
X039396Y-031744
X039409Y-047683
X039488Y-034646
X039608Y-045930
X039659Y-023964
X039697Y-046768
X039774Y-029323
X039795Y-048224
X039837Y-031384
X039848Y-031843
X039857Y-029710
X039902Y-030363
X039931Y-030957
X039993Y-030132
X040094Y-047870
X040203Y-027237
X040237Y-033677
X040373Y-029780
X040433Y-031299
X040433Y-031890
X040483Y-027181
X040554Y-045232
X040701Y-044643
X040730Y-033710
X040897Y-034684
X040918Y-048992
X040945Y-056693
X040949Y-046866
X040975Y-024205
X041041Y-048321
X041056Y-026929
X041240Y-032530
X041429Y-032783
X041494Y-025724
X041555Y-030965
X041859Y-031274
X041929Y-033858
X042020Y-053179
X042043Y-031841
X042189Y-046496
X042196Y-047145
X042482Y-029508
X042595Y-054102
X042717Y-025674
X042913Y-021654
X042960Y-031861
X043062Y-054749
X043272Y-055854
X043288Y-053625
X043729Y-035825
X043764Y-049173
X043768Y-044902
X043803Y-050695
X043862Y-055854
X043885Y-053464
X043961Y-054496
X044059Y-050335
X044063Y-046063
X044078Y-026322
X044246Y-053475
X044291Y-035354
X044354Y-049173
X044424Y-044790
X044453Y-055854
X044488Y-056693
X044582Y-027792
X044871Y-044550
X044882Y-027776
X044919Y-047656
X045128Y-031662
X045215Y-046247
X045240Y-049144
X045240Y-050071
X045268Y-035016
X045374Y-031516
X045501Y-049950
X045539Y-045886
X045917Y-034282
X045926Y-042921
X046063Y-021654
X046063Y-056693
X046104Y-026051
X046122Y-048248
X046124Y-033249
X046373Y-025867
X046397Y-033685
X046441Y-035672
X046449Y-026568
X046449Y-034382
X046449Y-036815
X046449Y-037046
X046449Y-049709
X046452Y-026852
X046557Y-036261
X046814Y-047554
X046831Y-026112
X046831Y-033593
X046831Y-046289
X046831Y-048947
X047248Y-047044
X047264Y-043406
X047264Y-043996
X047265Y-045655
X047285Y-023271
X047304Y-024133
X047324Y-023820
X047329Y-023513
X047385Y-046156
X047443Y-025514
X047471Y-033579
X047488Y-035029
X047513Y-048435
X047611Y-043701
X047676Y-047415
X047680Y-042907
X047697Y-045637
X048028Y-023358
X048248Y-043898
X048269Y-046866
X048425Y-021654
X048493Y-036921
X048819Y-043701
X048819Y-056693
X048913Y-044572
X049016Y-043130
X049035Y-022332
X049035Y-032569
X049035Y-035226
X049035Y-047923
X049056Y-024972
X049187Y-050076
X049204Y-037375
X049365Y-045273
X049390Y-043504
X049809Y-026440
X050613Y-034105
X051127Y-036734
X051181Y-021654
X051181Y-056693
X051394Y-036700
X051394Y-047042
X052175Y-046876
X052250Y-025822
X052311Y-026367
X052544Y-035950
X052657Y-025344
X052845Y-035704
X053123Y-032754
X053733Y-041347
X053737Y-032820
X053737Y-057192
X053771Y-035624
X053783Y-025527
X053937Y-021654
X054331Y-056299
X054970Y-049200
X055299Y-045195
X055594Y-033612
X055649Y-049358
X056155Y-033370
X056238Y-054059
X056299Y-056299
X056625Y-034030
X056693Y-021654
X056776Y-046823
X056818Y-047327
X056978Y-034277
X056992Y-036194
X057199Y-049794
X057280Y-053391
X057327Y-025795
X057393Y-038731
X057445Y-045173
X057469Y-056154
X057492Y-052487
X057512Y-046702
X057515Y-034256
X057560Y-028236
X057579Y-028001
X057579Y-031192
X057579Y-036588
X057579Y-038926
X057579Y-047641
X057579Y-050308
X057643Y-030295
X057701Y-024813
X057709Y-035896
X057776Y-052232
X057855Y-035732
X057863Y-045127
X057928Y-053358
X058096Y-034416
X058173Y-049461
X058190Y-025230
X058190Y-028285
X058190Y-036266
X058190Y-044381
X058190Y-047747
X058190Y-049929
X058204Y-052904
X058268Y-056693
X058424Y-024757
X058424Y-038749
X058424Y-049461
X058424Y-052243
X058517Y-047828
X058524Y-042169
X058525Y-032299
X058552Y-045139
X058552Y-027340
X058563Y-024428
X058580Y-025790
X058608Y-053353
X058661Y-021654
X058698Y-036093
X058770Y-039424
X058818Y-031354
X059006Y-038779
X059011Y-025779
X059029Y-046807
X059107Y-045103
X059187Y-053409
X059205Y-041974
X059205Y-042301
X059205Y-049044
X059212Y-038515
X059277Y-038727
X059338Y-031256
X059384Y-047696
X059482Y-050716
X059534Y-036237
X059535Y-056540
X059677Y-045274
X059699Y-040817
X059708Y-043654
X059739Y-030904
X059745Y-025582
X059763Y-039141
X059959Y-024984
X059971Y-047637
X059994Y-036049
X060026Y-054568
X060036Y-043469
X060044Y-039755
X060053Y-028678
X060056Y-047361
X060115Y-045376
X060120Y-026006
X060124Y-036460
X060175Y-038425
X060194Y-027691
X060216Y-054180
X060234Y-025031
X060244Y-032273
X060290Y-039220
X060292Y-050737
X060306Y-036143
X060317Y-043484
X060360Y-039624
X060438Y-028616
X060450Y-054055
X060533Y-028258
X060589Y-046773
X060589Y-050231
X060630Y-021654
X060667Y-031880
X060751Y-045935
X060792Y-050124
X060870Y-042172
X060886Y-031775
X060918Y-046862
X060951Y-035682
X060957Y-024701
X061011Y-036204
X061014Y-043172
X061018Y-028736
X061024Y-050701
X061026Y-047250
X061032Y-046627
X061034Y-039721
X061035Y-045814
X061152Y-047874
X061191Y-029449
X061220Y-049925
X061230Y-040699
X061271Y-050293
X061291Y-034701
X061319Y-025984
X061319Y-033169
X061319Y-044390
X061319Y-051673
X061319Y-055315
X061360Y-035852
X061401Y-042699
X061410Y-049756
X061411Y-039155
X061417Y-028054
X061417Y-056693
X061425Y-031666
X061425Y-038725
X061516Y-037274
X061528Y-024744
X061528Y-031926
X061530Y-046221
X061548Y-042952
X061584Y-050291
X061626Y-035901
X061672Y-031232
X061703Y-046840
X061790Y-049456
X061811Y-027677
X061811Y-035158
X061811Y-038701
X061811Y-042244
X061811Y-049725
X061811Y-053268
X061816Y-053876
X061896Y-050468
X062050Y-049430
X062077Y-028331
X062098Y-046884
X062106Y-024193
X062112Y-046181
X062117Y-035777
X062167Y-042976
X062210Y-043483
X062222Y-039280
X062243Y-039722
X062291Y-028649
X062327Y-047102
X062330Y-046779
X062339Y-035722
X062365Y-036085
X062372Y-054103
X062379Y-043169
X062381Y-024983
X062396Y-054372
X062499Y-050676
X062517Y-039899
X062524Y-025688
X062551Y-028950
X062551Y-036372
X062551Y-047396
X062556Y-032782
X062578Y-051145
X062580Y-045834
X062609Y-036630
X062627Y-038539
X062627Y-025457
X062648Y-035777
X062648Y-034212
X062701Y-051389
X062776Y-030282
X062882Y-034056
X062893Y-036812
X062992Y-021654
X063023Y-034830
X063110Y-031140
X063110Y-045584
X063123Y-024758
X063231Y-033957
X063657Y-056680
X063828Y-053199
X063870Y-026574
X063891Y-027455
X063891Y-041896
X063891Y-056605
X064587Y-041926
X064672Y-038554
X064672Y-045473
X064672Y-056379
X065219Y-030717
X065219Y-041763
X065354Y-021654
X065454Y-027353
X065454Y-030664
X065454Y-041711
X065454Y-052729
X065748Y-056693
X066126Y-041454
X066192Y-052543
X066235Y-033769
X066235Y-038503
X066235Y-045276
X066235Y-049476
X066235Y-055877
X067016Y-022286
X067016Y-049476
X067016Y-052487
X067224Y-049310
X067717Y-056693
X067796Y-038400
X067797Y-033667
X067797Y-044764
X067797Y-055788
X068578Y-030514
X068578Y-033569
X068578Y-035653
X068578Y-041556
X068578Y-052390
X068578Y-055690
X068802Y-041221
X069291Y-022047
X069359Y-030314
X069669Y-055690
X070107Y-056336
X071096Y-045285
X072047Y-022441
X072047Y-025591
X072047Y-028346
X072047Y-031102
X072047Y-033858
X072047Y-036614
X072047Y-039370
X072047Y-042126
X072047Y-044882
X072047Y-047638
X072047Y-050394
X072047Y-053150
X072047Y-055512
X072441Y-024016
X072441Y-026772
X072441Y-029528
X072441Y-032283
X072441Y-035039
X072441Y-037795
X072441Y-040551
X072441Y-043307
X072441Y-046063
X072441Y-048819
X072441Y-051575
X072441Y-054331
T2
X040400Y-048516
X040470Y-047023
X045240Y-050504
X045831Y-049413
T3
X041126Y-022728
X041126Y-023728
X041626Y-022728
X041626Y-023728
X042126Y-022728
X042126Y-023728
X042626Y-022728
X042626Y-023728
X043126Y-022728
X043126Y-023728
T4
X035827Y-023937
X035827Y-025669
T5
X043370Y-043780
X044370Y-043780
X044382Y-025878
X044382Y-026878
X044382Y-029618
X044382Y-030618
X044382Y-033457
X044382Y-034457
X045370Y-043780
X045382Y-025878
X045382Y-026878
X045382Y-029618
X045382Y-030618
X045382Y-033457
X045382Y-034457
X048819Y-038260
X048819Y-039260
X048819Y-040331
X048819Y-041331
X050661Y-024016
X050661Y-026772
X050661Y-029528
X050661Y-032283
X050661Y-035039
X050661Y-037795
X050661Y-040551
X050661Y-043307
X050661Y-046063
X050661Y-048819
X050661Y-051575
X050661Y-054331
X051661Y-024016
X051661Y-026772
X051661Y-029528
X051661Y-032283
X051661Y-035039
X051661Y-037795
X051661Y-040551
X051661Y-043307
X051661Y-046063
X051661Y-048819
X051661Y-051575
X051661Y-054331
X052732Y-024016
X052732Y-026772
X052732Y-029528
X052732Y-032283
X052732Y-035039
X052732Y-037795
X052732Y-040551
X052732Y-043307
X052732Y-046063
X052732Y-048819
X052732Y-051575
X052732Y-054331
X053732Y-024016
X053732Y-026772
X053732Y-029528
X053732Y-032283
X053732Y-035039
X053732Y-037795
X053732Y-040551
X053732Y-043307
X053732Y-046063
X053732Y-048819
X053732Y-051575
X053732Y-054331
X054732Y-024016
X054732Y-026772
X054732Y-029528
X054732Y-032283
X054732Y-035039
X054732Y-037795
X054732Y-040551
X054732Y-043307
X054732Y-046063
X054732Y-048819
X054732Y-051575
X054732Y-054331
X055732Y-024016
X055732Y-026772
X055732Y-029528
X055732Y-032283
X055732Y-035039
X055732Y-037795
X055732Y-040551
X055732Y-043307
X055732Y-046063
X055732Y-048819
X055732Y-051575
X055732Y-054331
X056803Y-024016
X056803Y-026772
X056803Y-029528
X056803Y-032283
X056803Y-035039
X056803Y-037795
X056803Y-040551
X056803Y-043307
X056803Y-046063
X056803Y-048819
X056803Y-051575
X056803Y-054331
X057803Y-024016
X057803Y-026772
X057803Y-029528
X057803Y-032283
X057803Y-035039
X057803Y-037795
X057803Y-040551
X057803Y-043307
X057803Y-046063
X057803Y-048819
X057803Y-051575
X057803Y-054331
X064539Y-024016
X064539Y-026772
X064539Y-029528
X064539Y-032283
X064539Y-035039
X064539Y-037795
X064539Y-040551
X064539Y-043307
X064539Y-046063
X064539Y-048819
X064539Y-051575
X064539Y-054331
X065539Y-024016
X065539Y-026772
X065539Y-029528
X065539Y-032283
X065539Y-035039
X065539Y-037795
X065539Y-040551
X065539Y-043307
X065539Y-046063
X065539Y-048819
X065539Y-051575
X065539Y-054331
X066610Y-024016
X066610Y-026772
X066610Y-029528
X066610Y-032283
X066610Y-035039
X066610Y-037795
X066610Y-040551
X066610Y-043307
X066610Y-046063
X066610Y-048819
X066610Y-051575
X066610Y-054331
X067610Y-024016
X067610Y-026772
X067610Y-029528
X067610Y-032283
X067610Y-035039
X067610Y-037795
X067610Y-040551
X067610Y-043307
X067610Y-046063
X067610Y-048819
X067610Y-051575
X067610Y-054331
X068610Y-024016
X068610Y-026772
X068610Y-029528
X068610Y-032283
X068610Y-035039
X068610Y-037795
X068610Y-040551
X068610Y-043307
X068610Y-046063
X068610Y-048819
X068610Y-051575
X068610Y-054331
X069610Y-024016
X069610Y-026772
X069610Y-029528
X069610Y-032283
X069610Y-035039
X069610Y-037795
X069610Y-040551
X069610Y-043307
X069610Y-046063
X069610Y-048819
X069610Y-051575
X069610Y-054331
X070681Y-024016
X070681Y-026772
X070681Y-029528
X070681Y-032283
X070681Y-035039
X070681Y-037795
X070681Y-040551
X070681Y-043307
X070681Y-046063
X070681Y-048819
X070681Y-051575
X070681Y-054331
X071681Y-024016
X071681Y-026772
X071681Y-029528
X071681Y-032283
X071681Y-035039
X071681Y-037795
X071681Y-040551
X071681Y-043307
X071681Y-046063
X071681Y-048819
X071681Y-051575
X071681Y-054331
T6
X038287Y-055669
T7
X038287Y-053996
T8
X047949Y-029783
X071252Y-056150
T0
M30
