%FSLAX45Y45*%
G04 Gerber Fmt 4.5, Leading zero omitted, Abs format (unit mm)*
G04 Created by KiCad (PCBNEW (2014-10-18 BZR 5203)-product) date 11/17/2014 11:17:52 AM*
%MOMM*%
G01*
G04 APERTURE LIST*
%ADD10C,0.127000*%
%ADD11C,0.100000*%
%ADD12C,0.200000*%
%ADD13C,0.300000*%
G04 APERTURE END LIST*
D10*
D11*
X18500000Y-5400000D02*
X8600000Y-5400000D01*
X18500000Y-14600000D02*
X18500000Y-5400000D01*
X8600000Y-14600000D02*
X18500000Y-14600000D01*
X8600000Y-5400000D02*
X8600000Y-14600000D01*
D12*
X8685000Y-9085000D02*
X8715000Y-9115000D01*
X8715000Y-9085000D02*
X8685000Y-9115000D01*
X8785000Y-5485000D02*
X8815000Y-5515000D01*
X8815000Y-5485000D02*
X8785000Y-5515000D01*
X8785000Y-7085000D02*
X8815000Y-7115000D01*
X8815000Y-7085000D02*
X8785000Y-7115000D01*
X8785000Y-7485000D02*
X8815000Y-7515000D01*
X8815000Y-7485000D02*
X8785000Y-7515000D01*
X8785000Y-8085000D02*
X8815000Y-8115000D01*
X8815000Y-8085000D02*
X8785000Y-8115000D01*
X8785000Y-8585000D02*
X8815000Y-8615000D01*
X8815000Y-8585000D02*
X8785000Y-8615000D01*
X8785000Y-11485000D02*
X8815000Y-11515000D01*
X8815000Y-11485000D02*
X8785000Y-11515000D01*
X8785000Y-11985000D02*
X8815000Y-12015000D01*
X8815000Y-11985000D02*
X8785000Y-12015000D01*
X8785000Y-12885000D02*
X8815000Y-12915000D01*
X8815000Y-12885000D02*
X8785000Y-12915000D01*
X8785000Y-13585000D02*
X8815000Y-13615000D01*
X8815000Y-13585000D02*
X8785000Y-13615000D01*
X8785000Y-14185000D02*
X8815000Y-14215000D01*
X8815000Y-14185000D02*
X8785000Y-14215000D01*
X8812500Y-5840000D02*
X8842500Y-5870000D01*
X8842500Y-5840000D02*
X8812500Y-5870000D01*
X8812500Y-6125000D02*
X8842500Y-6155000D01*
X8842500Y-6125000D02*
X8812500Y-6155000D01*
X8812500Y-6730000D02*
X8842500Y-6760000D01*
X8842500Y-6730000D02*
X8812500Y-6760000D01*
X8885000Y-9685000D02*
X8915000Y-9715000D01*
X8915000Y-9685000D02*
X8885000Y-9715000D01*
X8885000Y-10185000D02*
X8915000Y-10215000D01*
X8915000Y-10185000D02*
X8885000Y-10215000D01*
X8885000Y-10785000D02*
X8915000Y-10815000D01*
X8915000Y-10785000D02*
X8885000Y-10815000D01*
X8915042Y-7510000D02*
X8945042Y-7540000D01*
X8945042Y-7510000D02*
X8915042Y-7540000D01*
X8915042Y-7660000D02*
X8945042Y-7690000D01*
X8945042Y-7660000D02*
X8915042Y-7690000D01*
X8915042Y-7810000D02*
X8945042Y-7840000D01*
X8945042Y-7810000D02*
X8915042Y-7840000D01*
X8915042Y-7960000D02*
X8945042Y-7990000D01*
X8945042Y-7960000D02*
X8915042Y-7990000D01*
X9040042Y-8785000D02*
X9070042Y-8815000D01*
X9070042Y-8785000D02*
X9040042Y-8815000D01*
X9085000Y-14385000D02*
X9115000Y-14415000D01*
X9115000Y-14385000D02*
X9085000Y-14415000D01*
X9100280Y-7411580D02*
X9130280Y-7441580D01*
X9130280Y-7411580D02*
X9100280Y-7441580D01*
X9118000Y-11382822D02*
X9148000Y-11412822D01*
X9148000Y-11382822D02*
X9118000Y-11412822D01*
X9135000Y-7735000D02*
X9165000Y-7765000D01*
X9165000Y-7735000D02*
X9135000Y-7765000D01*
X9152110Y-7238810D02*
X9182110Y-7268810D01*
X9182110Y-7238810D02*
X9152110Y-7268810D01*
X9200610Y-7471750D02*
X9230610Y-7501750D01*
X9230610Y-7471750D02*
X9200610Y-7501750D01*
X9213076Y-12094000D02*
X9243076Y-12124000D01*
X9243076Y-12094000D02*
X9213076Y-12124000D01*
X9247360Y-7068550D02*
X9277360Y-7098550D01*
X9277360Y-7068550D02*
X9247360Y-7098550D01*
X9264270Y-7909780D02*
X9294270Y-7939780D01*
X9294270Y-7909780D02*
X9264270Y-7939780D01*
X9285000Y-5485000D02*
X9315000Y-5515000D01*
X9315000Y-5485000D02*
X9285000Y-5515000D01*
X9294000Y-12619000D02*
X9324000Y-12649000D01*
X9324000Y-12619000D02*
X9294000Y-12649000D01*
X9294000Y-12714000D02*
X9324000Y-12744000D01*
X9324000Y-12714000D02*
X9294000Y-12744000D01*
X9296760Y-12103580D02*
X9326760Y-12133580D01*
X9326760Y-12103580D02*
X9296760Y-12133580D01*
X9306800Y-6614400D02*
X9336800Y-6644400D01*
X9336800Y-6614400D02*
X9306800Y-6644400D01*
X9339190Y-11087300D02*
X9369190Y-11117300D01*
X9369190Y-11087300D02*
X9339190Y-11117300D01*
X9357500Y-5840000D02*
X9387500Y-5870000D01*
X9387500Y-5840000D02*
X9357500Y-5870000D01*
X9357550Y-8121880D02*
X9387550Y-8151880D01*
X9387550Y-8121880D02*
X9357550Y-8151880D01*
X9360000Y-7090042D02*
X9390000Y-7120042D01*
X9390000Y-7090042D02*
X9360000Y-7120042D01*
X9360000Y-8479958D02*
X9390000Y-8509958D01*
X9390000Y-8479958D02*
X9360000Y-8509958D01*
X9383890Y-7455650D02*
X9413890Y-7485650D01*
X9413890Y-7455650D02*
X9383890Y-7485650D01*
X9420450Y-12537400D02*
X9450450Y-12567400D01*
X9450450Y-12537400D02*
X9420450Y-12567400D01*
X9423130Y-7662150D02*
X9453130Y-7692150D01*
X9453130Y-7662150D02*
X9423130Y-7692150D01*
X9423130Y-7883890D02*
X9453130Y-7913890D01*
X9453130Y-7883890D02*
X9423130Y-7913890D01*
X9428160Y-8295210D02*
X9458160Y-8325210D01*
X9458160Y-8295210D02*
X9428160Y-8325210D01*
X9435000Y-7118680D02*
X9465000Y-7148680D01*
X9465000Y-7118680D02*
X9435000Y-7148680D01*
X9485000Y-8235000D02*
X9515000Y-8265000D01*
X9515000Y-8235000D02*
X9485000Y-8265000D01*
X9503560Y-7257450D02*
X9533560Y-7287450D01*
X9533560Y-7257450D02*
X9503560Y-7287450D01*
X9510000Y-7090042D02*
X9540000Y-7120042D01*
X9540000Y-7090042D02*
X9510000Y-7120042D01*
X9510000Y-8479958D02*
X9540000Y-8509958D01*
X9540000Y-8479958D02*
X9510000Y-8509958D01*
X9513000Y-12719042D02*
X9543000Y-12749042D01*
X9543000Y-12719042D02*
X9513000Y-12749042D01*
X9541310Y-8327890D02*
X9571310Y-8357890D01*
X9571310Y-8327890D02*
X9541310Y-8357890D01*
X9544990Y-11657770D02*
X9574990Y-11687770D01*
X9574990Y-11657770D02*
X9544990Y-11687770D01*
X9608760Y-7261120D02*
X9638760Y-7291120D01*
X9638760Y-7261120D02*
X9608760Y-7291120D01*
X9643000Y-11833958D02*
X9673000Y-11863958D01*
X9673000Y-11833958D02*
X9643000Y-11863958D01*
X9646650Y-12055840D02*
X9676650Y-12085840D01*
X9676650Y-12055840D02*
X9646650Y-12085840D01*
X9660000Y-7090042D02*
X9690000Y-7120042D01*
X9690000Y-7090042D02*
X9660000Y-7120042D01*
X9668780Y-7461990D02*
X9698780Y-7491990D01*
X9698780Y-7461990D02*
X9668780Y-7491990D01*
X9678780Y-7963140D02*
X9708780Y-7993140D01*
X9708780Y-7963140D02*
X9678780Y-7993140D01*
X9690480Y-6878290D02*
X9720480Y-6908290D01*
X9720480Y-6878290D02*
X9690480Y-6908290D01*
X9692790Y-7234310D02*
X9722790Y-7264310D01*
X9722790Y-7234310D02*
X9692790Y-7264310D01*
X9710410Y-7699490D02*
X9740410Y-7729490D01*
X9740410Y-7699490D02*
X9710410Y-7729490D01*
X9719190Y-12434530D02*
X9749190Y-12464530D01*
X9749190Y-12434530D02*
X9719190Y-12464530D01*
X9727690Y-8461300D02*
X9757690Y-8491300D01*
X9757690Y-8461300D02*
X9727690Y-8491300D01*
X9755950Y-8121460D02*
X9785950Y-8151460D01*
X9785950Y-8121460D02*
X9755950Y-8151460D01*
X9785000Y-7335000D02*
X9815000Y-7365000D01*
X9815000Y-7335000D02*
X9785000Y-7365000D01*
X9785000Y-14385000D02*
X9815000Y-14415000D01*
X9815000Y-14385000D02*
X9785000Y-14415000D01*
X9793000Y-11944042D02*
X9823000Y-11974042D01*
X9823000Y-11944042D02*
X9793000Y-11974042D01*
X9793000Y-12144042D02*
X9823000Y-12174042D01*
X9823000Y-12144042D02*
X9793000Y-12174042D01*
X9810000Y-7090042D02*
X9840000Y-7120042D01*
X9840000Y-7090042D02*
X9810000Y-7120042D01*
X9885000Y-7234140D02*
X9915000Y-7264140D01*
X9915000Y-7234140D02*
X9885000Y-7264140D01*
X9900220Y-7675640D02*
X9930220Y-7705640D01*
X9930220Y-7675640D02*
X9900220Y-7705640D01*
X9922280Y-6696630D02*
X9952280Y-6726630D01*
X9952280Y-6696630D02*
X9922280Y-6726630D01*
X9934700Y-7957990D02*
X9964700Y-7987990D01*
X9964700Y-7957990D02*
X9934700Y-7987990D01*
X9960000Y-7090042D02*
X9990000Y-7120042D01*
X9990000Y-7090042D02*
X9960000Y-7120042D01*
X9985000Y-5485000D02*
X10015000Y-5515000D01*
X10015000Y-5485000D02*
X9985000Y-5515000D01*
X9991580Y-8048100D02*
X10021580Y-8078100D01*
X10021580Y-8048100D02*
X9991580Y-8078100D01*
X9994770Y-12096480D02*
X10024770Y-12126480D01*
X10024770Y-12096480D02*
X9994770Y-12126480D01*
X10015042Y-8785000D02*
X10045042Y-8815000D01*
X10045042Y-8785000D02*
X10015042Y-8815000D01*
X10045500Y-11651270D02*
X10075500Y-11681270D01*
X10075500Y-11651270D02*
X10045500Y-11681270D01*
X10058450Y-6071750D02*
X10088450Y-6101750D01*
X10088450Y-6071750D02*
X10058450Y-6101750D01*
X10068000Y-11864000D02*
X10098000Y-11894000D01*
X10098000Y-11864000D02*
X10068000Y-11894000D01*
X10087470Y-7433040D02*
X10117470Y-7463040D01*
X10117470Y-7433040D02*
X10087470Y-7463040D01*
X10093000Y-12233958D02*
X10123000Y-12263958D01*
X10123000Y-12233958D02*
X10093000Y-12263958D01*
X10103620Y-7956420D02*
X10133620Y-7986420D01*
X10133620Y-7956420D02*
X10103620Y-7986420D01*
X10106330Y-8073080D02*
X10136330Y-8103080D01*
X10136330Y-8073080D02*
X10106330Y-8103080D01*
X10108600Y-7531390D02*
X10138600Y-7561390D01*
X10138600Y-7531390D02*
X10108600Y-7561390D01*
X10120010Y-7697110D02*
X10150010Y-7727110D01*
X10150010Y-7697110D02*
X10120010Y-7727110D01*
X10127560Y-7848190D02*
X10157560Y-7878190D01*
X10157560Y-7848190D02*
X10127560Y-7878190D01*
X10143120Y-7638430D02*
X10173120Y-7668430D01*
X10173120Y-7638430D02*
X10143120Y-7668430D01*
X10168940Y-12143980D02*
X10198940Y-12173980D01*
X10198940Y-12143980D02*
X10168940Y-12173980D01*
X10196580Y-6903240D02*
X10226580Y-6933240D01*
X10226580Y-6903240D02*
X10196580Y-6933240D01*
X10205130Y-8538870D02*
X10235130Y-8568870D01*
X10235130Y-8538870D02*
X10205130Y-8568870D01*
X10239830Y-7549210D02*
X10269830Y-7579210D01*
X10269830Y-7549210D02*
X10239830Y-7579210D01*
X10254958Y-7935000D02*
X10284958Y-7965000D01*
X10284958Y-7935000D02*
X10254958Y-7965000D01*
X10254958Y-8085000D02*
X10284958Y-8115000D01*
X10284958Y-8085000D02*
X10254958Y-8115000D01*
X10267600Y-6889010D02*
X10297600Y-6919010D01*
X10297600Y-6889010D02*
X10267600Y-6919010D01*
X10285720Y-11473930D02*
X10315720Y-11503930D01*
X10315720Y-11473930D02*
X10285720Y-11503930D01*
X10323000Y-11324250D02*
X10353000Y-11354250D01*
X10353000Y-11324250D02*
X10323000Y-11354250D01*
X10330520Y-8547250D02*
X10360520Y-8577250D01*
X10360520Y-8547250D02*
X10330520Y-8577250D01*
X10372940Y-8794790D02*
X10402940Y-8824790D01*
X10402940Y-8794790D02*
X10372940Y-8824790D01*
X10378250Y-12429000D02*
X10408250Y-12459000D01*
X10408250Y-12429000D02*
X10378250Y-12459000D01*
X10385000Y-14385000D02*
X10415000Y-14415000D01*
X10415000Y-14385000D02*
X10385000Y-14415000D01*
X10386150Y-11889060D02*
X10416150Y-11919060D01*
X10416150Y-11889060D02*
X10386150Y-11919060D01*
X10392630Y-6133000D02*
X10422630Y-6163000D01*
X10422630Y-6133000D02*
X10392630Y-6163000D01*
X10409410Y-12258530D02*
X10439410Y-12288530D01*
X10439410Y-12258530D02*
X10409410Y-12288530D01*
X10413330Y-6824920D02*
X10443330Y-6854920D01*
X10443330Y-6824920D02*
X10413330Y-6854920D01*
X10460040Y-8247740D02*
X10490040Y-8277740D01*
X10490040Y-8247740D02*
X10460040Y-8277740D01*
X10508000Y-8312000D02*
X10538000Y-8342000D01*
X10538000Y-8312000D02*
X10508000Y-8342000D01*
X10524490Y-6518900D02*
X10554490Y-6548900D01*
X10554490Y-6518900D02*
X10524490Y-6548900D01*
X10540000Y-7850000D02*
X10570000Y-7880000D01*
X10570000Y-7850000D02*
X10540000Y-7880000D01*
X10617150Y-7928520D02*
X10647150Y-7958520D01*
X10647150Y-7928520D02*
X10617150Y-7958520D01*
X10635000Y-8585000D02*
X10665000Y-8615000D01*
X10665000Y-8585000D02*
X10635000Y-8615000D01*
X10658200Y-13492580D02*
X10688200Y-13522580D01*
X10688200Y-13492580D02*
X10658200Y-13522580D01*
X10664010Y-8072730D02*
X10694010Y-8102730D01*
X10694010Y-8072730D02*
X10664010Y-8102730D01*
X10701000Y-11795102D02*
X10731000Y-11825102D01*
X10731000Y-11795102D02*
X10701000Y-11825102D01*
X10702780Y-11959830D02*
X10732780Y-11989830D01*
X10732780Y-11959830D02*
X10702780Y-11989830D01*
X10775500Y-7480000D02*
X10805500Y-7510000D01*
X10805500Y-7480000D02*
X10775500Y-7510000D01*
X10804210Y-13727000D02*
X10834210Y-13757000D01*
X10834210Y-13727000D02*
X10804210Y-13757000D01*
X10835000Y-6506190D02*
X10865000Y-6536190D01*
X10865000Y-6506190D02*
X10835000Y-6536190D01*
X10885000Y-5485000D02*
X10915000Y-5515000D01*
X10915000Y-5485000D02*
X10885000Y-5515000D01*
X10896850Y-8077670D02*
X10926850Y-8107670D01*
X10926850Y-8077670D02*
X10896850Y-8107670D01*
X10922740Y-13891200D02*
X10952740Y-13921200D01*
X10952740Y-13891200D02*
X10922740Y-13921200D01*
X10976000Y-14171958D02*
X11006000Y-14201958D01*
X11006000Y-14171958D02*
X10976000Y-14201958D01*
X10980180Y-13605750D02*
X11010180Y-13635750D01*
X11010180Y-13605750D02*
X10980180Y-13635750D01*
X11092090Y-9084550D02*
X11122090Y-9114550D01*
X11122090Y-9084550D02*
X11092090Y-9114550D01*
X11101000Y-12475042D02*
X11131000Y-12505042D01*
X11131000Y-12475042D02*
X11101000Y-12505042D01*
X11102000Y-11390042D02*
X11132000Y-11420042D01*
X11132000Y-11390042D02*
X11102000Y-11420042D01*
X11111000Y-12861500D02*
X11141000Y-12891500D01*
X11141000Y-12861500D02*
X11111000Y-12891500D01*
X11126000Y-14171958D02*
X11156000Y-14201958D01*
X11156000Y-14171958D02*
X11126000Y-14201958D01*
X11131720Y-13564910D02*
X11161720Y-13594910D01*
X11161720Y-13564910D02*
X11131720Y-13594910D01*
X11151000Y-13827000D02*
X11181000Y-13857000D01*
X11181000Y-13827000D02*
X11151000Y-13857000D01*
X11176000Y-12770000D02*
X11206000Y-12800000D01*
X11206000Y-12770000D02*
X11176000Y-12800000D01*
X11177000Y-11685000D02*
X11207000Y-11715000D01*
X11207000Y-11685000D02*
X11177000Y-11715000D01*
X11180700Y-6670710D02*
X11210700Y-6700710D01*
X11210700Y-6670710D02*
X11180700Y-6700710D01*
X11223600Y-13567680D02*
X11253600Y-13597680D01*
X11253600Y-13567680D02*
X11223600Y-13597680D01*
X11235000Y-8965042D02*
X11265000Y-8995042D01*
X11265000Y-8965042D02*
X11235000Y-8995042D01*
X11251000Y-12475042D02*
X11281000Y-12505042D01*
X11281000Y-12475042D02*
X11251000Y-12505042D01*
X11268700Y-11361660D02*
X11298700Y-11391660D01*
X11298700Y-11361660D02*
X11268700Y-11391660D01*
X11276000Y-14171958D02*
X11306000Y-14201958D01*
X11306000Y-14171958D02*
X11276000Y-14201958D01*
X11285000Y-14385000D02*
X11315000Y-14415000D01*
X11315000Y-14385000D02*
X11285000Y-14415000D01*
X11308790Y-7044150D02*
X11338790Y-7074150D01*
X11338790Y-7044150D02*
X11308790Y-7074150D01*
X11382360Y-11300760D02*
X11412360Y-11330760D01*
X11412360Y-11300760D02*
X11382360Y-11330760D01*
X11385000Y-7040042D02*
X11415000Y-7070042D01*
X11415000Y-7040042D02*
X11385000Y-7070042D01*
X11394300Y-12089500D02*
X11424300Y-12119500D01*
X11424300Y-12089500D02*
X11394300Y-12119500D01*
X11447500Y-8027040D02*
X11477500Y-8057040D01*
X11477500Y-8027040D02*
X11447500Y-8057040D01*
X11469620Y-11731790D02*
X11499620Y-11761790D01*
X11499620Y-11731790D02*
X11469620Y-11761790D01*
X11476000Y-12467590D02*
X11506000Y-12497590D01*
X11506000Y-12467590D02*
X11476000Y-12497590D01*
X11476000Y-12703160D02*
X11506000Y-12733160D01*
X11506000Y-12703160D02*
X11476000Y-12733160D01*
X11482990Y-8879150D02*
X11512990Y-8909150D01*
X11512990Y-8879150D02*
X11482990Y-8909150D01*
X11510000Y-7990042D02*
X11540000Y-8020042D01*
X11540000Y-7990042D02*
X11510000Y-8020042D01*
X11542250Y-12672300D02*
X11572250Y-12702300D01*
X11572250Y-12672300D02*
X11542250Y-12702300D01*
X11552000Y-11640042D02*
X11582000Y-11670042D01*
X11582000Y-11640042D02*
X11552000Y-11670042D01*
X11647980Y-8692670D02*
X11677980Y-8722670D01*
X11677980Y-8692670D02*
X11647980Y-8722670D01*
X11650200Y-10886860D02*
X11680200Y-10916860D01*
X11680200Y-10886860D02*
X11650200Y-10916860D01*
X11685000Y-5485000D02*
X11715000Y-5515000D01*
X11715000Y-5485000D02*
X11685000Y-5515000D01*
X11685000Y-14385000D02*
X11715000Y-14415000D01*
X11715000Y-14385000D02*
X11685000Y-14415000D01*
X11695390Y-6601990D02*
X11725390Y-6631990D01*
X11725390Y-6601990D02*
X11695390Y-6631990D01*
X11700000Y-12240042D02*
X11730000Y-12270042D01*
X11730000Y-12240042D02*
X11700000Y-12270042D01*
X11700550Y-8430210D02*
X11730550Y-8460210D01*
X11730550Y-8430210D02*
X11700550Y-8460210D01*
X11763630Y-6555170D02*
X11793630Y-6585170D01*
X11793630Y-6555170D02*
X11763630Y-6585170D01*
X11769830Y-8541030D02*
X11799830Y-8571030D01*
X11799830Y-8541030D02*
X11769830Y-8571030D01*
X11781110Y-9045570D02*
X11811110Y-9075570D01*
X11811110Y-9045570D02*
X11781110Y-9075570D01*
X11783000Y-6733360D02*
X11813000Y-6763360D01*
X11813000Y-6733360D02*
X11783000Y-6763360D01*
X11783000Y-8718070D02*
X11813000Y-8748070D01*
X11813000Y-8718070D02*
X11783000Y-8748070D01*
X11783000Y-9336020D02*
X11813000Y-9366020D01*
X11813000Y-9336020D02*
X11783000Y-9366020D01*
X11783000Y-9394630D02*
X11813000Y-9424630D01*
X11813000Y-9394630D02*
X11783000Y-9424630D01*
X11783000Y-12611110D02*
X11813000Y-12641110D01*
X11813000Y-12611110D02*
X11783000Y-12641110D01*
X11783770Y-6805500D02*
X11813770Y-6835500D01*
X11813770Y-6805500D02*
X11783770Y-6835500D01*
X11810480Y-9195290D02*
X11840480Y-9225290D01*
X11840480Y-9195290D02*
X11810480Y-9225290D01*
X11875830Y-12063820D02*
X11905830Y-12093820D01*
X11905830Y-12063820D02*
X11875830Y-12093820D01*
X11880092Y-6617512D02*
X11910092Y-6647512D01*
X11910092Y-6617512D02*
X11880092Y-6647512D01*
X11880092Y-8517512D02*
X11910092Y-8547512D01*
X11910092Y-8517512D02*
X11880092Y-8547512D01*
X11880092Y-11742512D02*
X11910092Y-11772512D01*
X11910092Y-11742512D02*
X11880092Y-11772512D01*
X11880092Y-12417512D02*
X11910092Y-12447512D01*
X11910092Y-12417512D02*
X11880092Y-12447512D01*
X11985980Y-11934090D02*
X12015980Y-11964090D01*
X12015980Y-11934090D02*
X11985980Y-11964090D01*
X11990042Y-11010000D02*
X12020042Y-11040000D01*
X12020042Y-11010000D02*
X11990042Y-11040000D01*
X11990042Y-11160000D02*
X12020042Y-11190000D01*
X12020042Y-11160000D02*
X11990042Y-11190000D01*
X11990390Y-11581280D02*
X12020390Y-11611280D01*
X12020390Y-11581280D02*
X11990390Y-11611280D01*
X11995350Y-5895720D02*
X12025350Y-5925720D01*
X12025350Y-5895720D02*
X11995350Y-5925720D01*
X12000130Y-6114750D02*
X12030130Y-6144750D01*
X12030130Y-6114750D02*
X12000130Y-6144750D01*
X12005340Y-6035370D02*
X12035340Y-6065370D01*
X12035340Y-6035370D02*
X12005340Y-6065370D01*
X12006690Y-5957180D02*
X12036690Y-5987180D01*
X12036690Y-5957180D02*
X12006690Y-5987180D01*
X12020700Y-11708680D02*
X12050700Y-11738680D01*
X12050700Y-11708680D02*
X12020700Y-11738680D01*
X12035460Y-6465640D02*
X12065460Y-6495640D01*
X12065460Y-6465640D02*
X12035460Y-6495640D01*
X12042620Y-8513940D02*
X12072620Y-8543940D01*
X12072620Y-8513940D02*
X12042620Y-8543940D01*
X12047000Y-8882460D02*
X12077000Y-8912460D01*
X12077000Y-8882460D02*
X12047000Y-8912460D01*
X12053300Y-12287490D02*
X12083300Y-12317490D01*
X12083300Y-12287490D02*
X12053300Y-12317490D01*
X12078090Y-11085000D02*
X12108090Y-11115000D01*
X12108090Y-11085000D02*
X12078090Y-11115000D01*
X12094780Y-12028290D02*
X12124780Y-12058290D01*
X12124780Y-12028290D02*
X12094780Y-12058290D01*
X12095630Y-10883330D02*
X12125630Y-10913330D01*
X12125630Y-10883330D02*
X12095630Y-10913330D01*
X12099950Y-11576790D02*
X12129950Y-11606790D01*
X12129950Y-11576790D02*
X12099950Y-11606790D01*
X12184110Y-5917930D02*
X12214110Y-5947930D01*
X12214110Y-5917930D02*
X12184110Y-5947930D01*
X12240000Y-11135000D02*
X12270000Y-11165000D01*
X12270000Y-11135000D02*
X12240000Y-11165000D01*
X12245400Y-11889060D02*
X12275400Y-11919060D01*
X12275400Y-11889060D02*
X12245400Y-11919060D01*
X12285000Y-5485000D02*
X12315000Y-5515000D01*
X12315000Y-5485000D02*
X12285000Y-5515000D01*
X12302210Y-9362960D02*
X12332210Y-9392960D01*
X12332210Y-9362960D02*
X12302210Y-9392960D01*
X12385000Y-11085000D02*
X12415000Y-11115000D01*
X12415000Y-11085000D02*
X12385000Y-11115000D01*
X12385000Y-14385000D02*
X12415000Y-14415000D01*
X12415000Y-14385000D02*
X12385000Y-14415000D01*
X12408930Y-11306270D02*
X12438930Y-11336270D01*
X12438930Y-11306270D02*
X12408930Y-11336270D01*
X12435000Y-10940000D02*
X12465000Y-10970000D01*
X12465000Y-10940000D02*
X12435000Y-10970000D01*
X12439908Y-5657416D02*
X12469908Y-5687416D01*
X12469908Y-5657416D02*
X12439908Y-5687416D01*
X12439908Y-8257416D02*
X12469908Y-8287416D01*
X12469908Y-8257416D02*
X12439908Y-8287416D01*
X12439908Y-8932416D02*
X12469908Y-8962416D01*
X12469908Y-8932416D02*
X12439908Y-8962416D01*
X12439908Y-12157416D02*
X12469908Y-12187416D01*
X12469908Y-12157416D02*
X12439908Y-12187416D01*
X12445220Y-6327890D02*
X12475220Y-6357890D01*
X12475220Y-6327890D02*
X12445220Y-6357890D01*
X12478520Y-12704300D02*
X12508520Y-12734300D01*
X12508520Y-12704300D02*
X12478520Y-12734300D01*
X12482800Y-9478310D02*
X12512800Y-9508310D01*
X12512800Y-9478310D02*
X12482800Y-9508310D01*
X12523710Y-11484340D02*
X12553710Y-11514340D01*
X12553710Y-11484340D02*
X12523710Y-11514340D01*
X12530000Y-11035000D02*
X12560000Y-11065000D01*
X12560000Y-11035000D02*
X12530000Y-11065000D01*
X12636570Y-6700850D02*
X12666570Y-6730850D01*
X12666570Y-6700850D02*
X12636570Y-6730850D01*
X12840600Y-8647560D02*
X12870600Y-8677560D01*
X12870600Y-8647560D02*
X12840600Y-8677560D01*
X12971140Y-9315510D02*
X13001140Y-9345510D01*
X13001140Y-9315510D02*
X12971140Y-9345510D01*
X12985000Y-5485000D02*
X13015000Y-5515000D01*
X13015000Y-5485000D02*
X12985000Y-5515000D01*
X12985000Y-14385000D02*
X13015000Y-14415000D01*
X13015000Y-14385000D02*
X12985000Y-14415000D01*
X13039000Y-9306730D02*
X13069000Y-9336730D01*
X13069000Y-9306730D02*
X13039000Y-9336730D01*
X13039000Y-11933670D02*
X13069000Y-11963670D01*
X13069000Y-11933670D02*
X13039000Y-11963670D01*
X13237400Y-11891630D02*
X13267400Y-11921630D01*
X13267400Y-11891630D02*
X13237400Y-11921630D01*
X13256490Y-6543670D02*
X13286490Y-6573670D01*
X13286490Y-6543670D02*
X13256490Y-6573670D01*
X13272090Y-6682150D02*
X13302090Y-6712150D01*
X13302090Y-6682150D02*
X13272090Y-6712150D01*
X13331250Y-9116300D02*
X13361250Y-9146300D01*
X13361250Y-9116300D02*
X13331250Y-9146300D01*
X13359930Y-6422290D02*
X13389930Y-6452290D01*
X13389930Y-6422290D02*
X13359930Y-6452290D01*
X13407750Y-9053830D02*
X13437750Y-9083830D01*
X13437750Y-9053830D02*
X13407750Y-9083830D01*
X13478360Y-8304420D02*
X13508360Y-8334420D01*
X13508360Y-8304420D02*
X13478360Y-8334420D01*
X13633120Y-10487060D02*
X13663120Y-10517060D01*
X13663120Y-10487060D02*
X13633120Y-10517060D01*
X13634200Y-8321280D02*
X13664200Y-8351280D01*
X13664200Y-8321280D02*
X13634200Y-8351280D01*
X13634200Y-14511890D02*
X13664200Y-14541890D01*
X13664200Y-14511890D02*
X13634200Y-14541890D01*
X13642960Y-9033580D02*
X13672960Y-9063580D01*
X13672960Y-9033580D02*
X13642960Y-9063580D01*
X13645930Y-6468800D02*
X13675930Y-6498800D01*
X13675930Y-6468800D02*
X13645930Y-6498800D01*
X13685000Y-5485000D02*
X13715000Y-5515000D01*
X13715000Y-5485000D02*
X13685000Y-5515000D01*
X13785000Y-14285000D02*
X13815000Y-14315000D01*
X13815000Y-14285000D02*
X13785000Y-14315000D01*
X13947500Y-12481810D02*
X13977500Y-12511810D01*
X13977500Y-12481810D02*
X13947500Y-12511810D01*
X14031000Y-11464520D02*
X14061000Y-11494520D01*
X14061000Y-11464520D02*
X14031000Y-11494520D01*
X14105780Y-8522400D02*
X14135780Y-8552400D01*
X14135780Y-8522400D02*
X14105780Y-8552400D01*
X14119820Y-12522000D02*
X14149820Y-12552000D01*
X14149820Y-12522000D02*
X14119820Y-12552000D01*
X14248420Y-8461000D02*
X14278420Y-8491000D01*
X14278420Y-8461000D02*
X14248420Y-8491000D01*
X14269550Y-13716060D02*
X14299550Y-13746060D01*
X14299550Y-13716060D02*
X14269550Y-13746060D01*
X14285000Y-14285000D02*
X14315000Y-14315000D01*
X14315000Y-14285000D02*
X14285000Y-14315000D01*
X14367630Y-8628640D02*
X14397630Y-8658640D01*
X14397630Y-8628640D02*
X14367630Y-8658640D01*
X14385000Y-5485000D02*
X14415000Y-5515000D01*
X14415000Y-5485000D02*
X14385000Y-5515000D01*
X14406020Y-11878120D02*
X14436020Y-11908120D01*
X14436020Y-11878120D02*
X14406020Y-11908120D01*
X14416820Y-12005990D02*
X14446820Y-12035990D01*
X14446820Y-12005990D02*
X14416820Y-12035990D01*
X14457360Y-8691320D02*
X14487360Y-8721320D01*
X14487360Y-8691320D02*
X14457360Y-8721320D01*
X14461060Y-9178240D02*
X14491060Y-9208240D01*
X14491060Y-9178240D02*
X14461060Y-9208240D01*
X14513670Y-12632800D02*
X14543670Y-12662800D01*
X14543670Y-12632800D02*
X14513670Y-12662800D01*
X14534180Y-13546350D02*
X14564180Y-13576350D01*
X14564180Y-13546350D02*
X14534180Y-13576350D01*
X14545990Y-6536840D02*
X14575990Y-6566840D01*
X14575990Y-6536840D02*
X14545990Y-6566840D01*
X14562870Y-9822710D02*
X14592870Y-9852710D01*
X14592870Y-9822710D02*
X14562870Y-9852710D01*
X14575920Y-11458990D02*
X14605920Y-11488990D01*
X14605920Y-11458990D02*
X14575920Y-11488990D01*
X14582240Y-14248120D02*
X14612240Y-14278120D01*
X14612240Y-14248120D02*
X14582240Y-14278120D01*
X14587940Y-13316630D02*
X14617940Y-13346630D01*
X14617940Y-13316630D02*
X14587940Y-13346630D01*
X14593000Y-11847280D02*
X14623000Y-11877280D01*
X14623000Y-11847280D02*
X14593000Y-11877280D01*
X14593830Y-8686090D02*
X14623830Y-8716090D01*
X14623830Y-8686090D02*
X14593830Y-8716090D01*
X14605190Y-7157060D02*
X14635190Y-7187060D01*
X14635190Y-7157060D02*
X14605190Y-7187060D01*
X14610000Y-7097170D02*
X14640000Y-7127170D01*
X14640000Y-7097170D02*
X14610000Y-7127170D01*
X14610000Y-7907730D02*
X14640000Y-7937730D01*
X14640000Y-7907730D02*
X14610000Y-7937730D01*
X14610000Y-9278230D02*
X14640000Y-9308230D01*
X14640000Y-9278230D02*
X14610000Y-9308230D01*
X14610000Y-9872230D02*
X14640000Y-9902230D01*
X14640000Y-9872230D02*
X14610000Y-9902230D01*
X14610000Y-12085820D02*
X14640000Y-12115820D01*
X14640000Y-12085820D02*
X14610000Y-12115820D01*
X14610000Y-12763220D02*
X14640000Y-12793220D01*
X14640000Y-12763220D02*
X14610000Y-12793220D01*
X14626200Y-7679820D02*
X14656200Y-7709820D01*
X14656200Y-7679820D02*
X14626200Y-7709820D01*
X14640930Y-6287440D02*
X14670930Y-6317440D01*
X14670930Y-6287440D02*
X14640930Y-6317440D01*
X14643150Y-9102670D02*
X14673150Y-9132670D01*
X14673150Y-9102670D02*
X14643150Y-9132670D01*
X14660140Y-13251910D02*
X14690140Y-13281910D01*
X14690140Y-13251910D02*
X14660140Y-13281910D01*
X14680120Y-9060950D02*
X14710120Y-9090950D01*
X14710120Y-9060950D02*
X14680120Y-9090950D01*
X14682120Y-11447290D02*
X14712120Y-11477290D01*
X14712120Y-11447290D02*
X14682120Y-11477290D01*
X14698670Y-13537890D02*
X14728670Y-13567890D01*
X14728670Y-13537890D02*
X14698670Y-13567890D01*
X14741330Y-8726660D02*
X14771330Y-8756660D01*
X14771330Y-8726660D02*
X14741330Y-8756660D01*
X14761040Y-12548160D02*
X14791040Y-12578160D01*
X14791040Y-12548160D02*
X14761040Y-12578160D01*
X14765220Y-6393470D02*
X14795220Y-6423470D01*
X14795220Y-6393470D02*
X14765220Y-6423470D01*
X14765220Y-7169370D02*
X14795220Y-7199370D01*
X14795220Y-7169370D02*
X14765220Y-7199370D01*
X14765220Y-9196550D02*
X14795220Y-9226550D01*
X14795220Y-9196550D02*
X14765220Y-9226550D01*
X14765220Y-11257710D02*
X14795220Y-11287710D01*
X14795220Y-11257710D02*
X14765220Y-11287710D01*
X14765220Y-12112700D02*
X14795220Y-12142700D01*
X14795220Y-12112700D02*
X14765220Y-12142700D01*
X14765220Y-12666870D02*
X14795220Y-12696870D01*
X14795220Y-12666870D02*
X14765220Y-12696870D01*
X14768890Y-13422520D02*
X14798890Y-13452520D01*
X14798890Y-13422520D02*
X14768890Y-13452520D01*
X14785000Y-14385000D02*
X14815000Y-14415000D01*
X14815000Y-14385000D02*
X14785000Y-14415000D01*
X14824600Y-6273310D02*
X14854600Y-6303310D01*
X14854600Y-6273310D02*
X14824600Y-6303310D01*
X14824600Y-9827270D02*
X14854600Y-9857270D01*
X14854600Y-9827270D02*
X14824600Y-9857270D01*
X14824600Y-12548140D02*
X14854600Y-12578140D01*
X14854600Y-12548140D02*
X14824600Y-12578140D01*
X14824600Y-13254830D02*
X14854600Y-13284830D01*
X14854600Y-13254830D02*
X14824600Y-13284830D01*
X14848430Y-12133370D02*
X14878430Y-12163370D01*
X14878430Y-12133370D02*
X14848430Y-12163370D01*
X14850180Y-10695860D02*
X14880180Y-10725860D01*
X14880180Y-10695860D02*
X14850180Y-10725860D01*
X14850350Y-8188870D02*
X14880350Y-8218870D01*
X14880350Y-8188870D02*
X14850350Y-8218870D01*
X14857140Y-11450390D02*
X14887140Y-11480390D01*
X14887140Y-11450390D02*
X14857140Y-11480390D01*
X14857250Y-6929480D02*
X14887250Y-6959480D01*
X14887250Y-6929480D02*
X14857250Y-6959480D01*
X14859970Y-6189630D02*
X14889970Y-6219630D01*
X14889970Y-6189630D02*
X14859970Y-6219630D01*
X14864420Y-6535680D02*
X14894420Y-6565680D01*
X14894420Y-6535680D02*
X14864420Y-6565680D01*
X14871410Y-13536760D02*
X14901410Y-13566760D01*
X14901410Y-13536760D02*
X14871410Y-13566760D01*
X14885000Y-5485000D02*
X14915000Y-5515000D01*
X14915000Y-5485000D02*
X14885000Y-5515000D01*
X14894390Y-9152740D02*
X14924390Y-9182740D01*
X14924390Y-9152740D02*
X14894390Y-9182740D01*
X14912520Y-9998750D02*
X14942520Y-10028750D01*
X14942520Y-9998750D02*
X14912520Y-10028750D01*
X14924740Y-7948880D02*
X14954740Y-7978880D01*
X14954740Y-7948880D02*
X14924740Y-7978880D01*
X14972590Y-9834940D02*
X15002590Y-9864940D01*
X15002590Y-9834940D02*
X14972590Y-9864940D01*
X14973680Y-6532770D02*
X15003680Y-6562770D01*
X15003680Y-6532770D02*
X14973680Y-6562770D01*
X14978350Y-11874050D02*
X15008350Y-11904050D01*
X15008350Y-11874050D02*
X14978350Y-11904050D01*
X14998180Y-11441160D02*
X15028180Y-11471160D01*
X15028180Y-11441160D02*
X14998180Y-11471160D01*
X15018460Y-13550890D02*
X15048460Y-13580890D01*
X15048460Y-13550890D02*
X15018460Y-13580890D01*
X15023000Y-10646420D02*
X15053000Y-10676420D01*
X15053000Y-10646420D02*
X15023000Y-10676420D01*
X15023000Y-10729500D02*
X15053000Y-10759500D01*
X15053000Y-10729500D02*
X15023000Y-10759500D01*
X15023000Y-12442290D02*
X15053000Y-12472290D01*
X15053000Y-12442290D02*
X15023000Y-12472290D01*
X15024780Y-9767920D02*
X15054780Y-9797920D01*
X15054780Y-9767920D02*
X15024780Y-9797920D01*
X15041450Y-9821730D02*
X15071450Y-9851730D01*
X15071450Y-9821730D02*
X15041450Y-9851730D01*
X15056810Y-7924130D02*
X15086810Y-7954130D01*
X15086810Y-7924130D02*
X15056810Y-7954130D01*
X15068590Y-12099850D02*
X15098590Y-12129850D01*
X15098590Y-12099850D02*
X15068590Y-12129850D01*
X15093350Y-12866760D02*
X15123350Y-12896760D01*
X15123350Y-12866760D02*
X15093350Y-12896760D01*
X15106510Y-9189210D02*
X15136510Y-9219210D01*
X15136510Y-9189210D02*
X15106510Y-9219210D01*
X15106840Y-14346040D02*
X15136840Y-14376040D01*
X15136840Y-14346040D02*
X15106840Y-14376040D01*
X15142870Y-11484580D02*
X15172870Y-11514580D01*
X15172870Y-11484580D02*
X15142870Y-11514580D01*
X15148470Y-10352560D02*
X15178470Y-10382560D01*
X15178470Y-10352560D02*
X15148470Y-10382560D01*
X15150910Y-11073000D02*
X15180910Y-11103000D01*
X15180910Y-11073000D02*
X15150910Y-11103000D01*
X15158800Y-7834550D02*
X15188800Y-7864550D01*
X15188800Y-7834550D02*
X15158800Y-7864550D01*
X15160260Y-6482860D02*
X15190260Y-6512860D01*
X15190260Y-6482860D02*
X15160260Y-6512860D01*
X15164740Y-9926780D02*
X15194740Y-9956780D01*
X15194740Y-9926780D02*
X15164740Y-9956780D01*
X15214560Y-6330980D02*
X15244560Y-6360980D01*
X15244560Y-6330980D02*
X15214560Y-6360980D01*
X15217600Y-12084810D02*
X15247600Y-12114810D01*
X15247600Y-12084810D02*
X15217600Y-12114810D01*
X15223420Y-9141500D02*
X15253420Y-9171500D01*
X15253420Y-9141500D02*
X15223420Y-9171500D01*
X15231510Y-13845240D02*
X15261510Y-13875240D01*
X15261510Y-13845240D02*
X15231510Y-13875240D01*
X15234240Y-11026030D02*
X15264240Y-11056030D01*
X15264240Y-11026030D02*
X15234240Y-11056030D01*
X15236280Y-10082880D02*
X15266280Y-10112880D01*
X15266280Y-10082880D02*
X15236280Y-10112880D01*
X15238450Y-7269290D02*
X15268450Y-7299290D01*
X15268450Y-7269290D02*
X15238450Y-7299290D01*
X15239300Y-12014800D02*
X15269300Y-12044800D01*
X15269300Y-12014800D02*
X15239300Y-12044800D01*
X15254320Y-11510430D02*
X15284320Y-11540430D01*
X15284320Y-11510430D02*
X15254320Y-11540430D01*
X15255430Y-6590600D02*
X15285430Y-6620600D01*
X15285430Y-6590600D02*
X15255430Y-6620600D01*
X15256450Y-9245890D02*
X15286450Y-9275890D01*
X15286450Y-9245890D02*
X15256450Y-9275890D01*
X15269430Y-9745060D02*
X15299430Y-9775060D01*
X15299430Y-9745060D02*
X15269430Y-9775060D01*
X15274180Y-7018620D02*
X15304180Y-7048620D01*
X15304180Y-7018620D02*
X15274180Y-7048620D01*
X15279810Y-13746760D02*
X15309810Y-13776760D01*
X15309810Y-13746760D02*
X15279810Y-13776760D01*
X15284320Y-6342890D02*
X15314320Y-6372890D01*
X15314320Y-6342890D02*
X15284320Y-6372890D01*
X15286930Y-8182310D02*
X15316930Y-8212310D01*
X15316930Y-8182310D02*
X15286930Y-8212310D01*
X15298560Y-9946930D02*
X15328560Y-9976930D01*
X15328560Y-9946930D02*
X15298560Y-9976930D01*
X15299060Y-12872260D02*
X15329060Y-12902260D01*
X15329060Y-12872260D02*
X15299060Y-12902260D01*
X15302690Y-9165210D02*
X15332690Y-9195210D01*
X15332690Y-9165210D02*
X15302690Y-9195210D01*
X15305430Y-11029940D02*
X15335430Y-11059940D01*
X15335430Y-11029940D02*
X15305430Y-11059940D01*
X15316390Y-10049620D02*
X15346390Y-10079620D01*
X15346390Y-10049620D02*
X15316390Y-10079620D01*
X15336270Y-7253510D02*
X15366270Y-7283510D01*
X15366270Y-7253510D02*
X15336270Y-7283510D01*
X15339260Y-13715090D02*
X15369260Y-13745090D01*
X15369260Y-13715090D02*
X15339260Y-13745090D01*
X15360450Y-7162480D02*
X15390450Y-7192480D01*
X15390450Y-7162480D02*
X15360450Y-7192480D01*
X15374640Y-11865280D02*
X15404640Y-11895280D01*
X15404640Y-11865280D02*
X15374640Y-11895280D01*
X15374640Y-12743710D02*
X15404640Y-12773710D01*
X15404640Y-12743710D02*
X15374640Y-12773710D01*
X15385000Y-5485000D02*
X15415000Y-5515000D01*
X15415000Y-5485000D02*
X15385000Y-5515000D01*
X15394390Y-8082410D02*
X15424390Y-8112410D01*
X15424390Y-8082410D02*
X15394390Y-8112410D01*
X15415760Y-11652490D02*
X15445760Y-11682490D01*
X15445760Y-11652490D02*
X15415760Y-11682490D01*
X15426130Y-12716520D02*
X15456130Y-12746520D01*
X15456130Y-12716520D02*
X15426130Y-12746520D01*
X15445890Y-10696670D02*
X15475890Y-10726670D01*
X15475890Y-10696670D02*
X15445890Y-10726670D01*
X15450150Y-8055850D02*
X15480150Y-8085850D01*
X15480150Y-8055850D02*
X15450150Y-8085850D01*
X15458220Y-11887880D02*
X15488220Y-11917880D01*
X15488220Y-11887880D02*
X15458220Y-11917880D01*
X15466590Y-9048340D02*
X15496590Y-9078340D01*
X15496590Y-9048340D02*
X15466590Y-9078340D01*
X15468030Y-6258960D02*
X15498030Y-6288960D01*
X15498030Y-6258960D02*
X15468030Y-6288960D01*
X15481790Y-9180820D02*
X15511790Y-9210820D01*
X15511790Y-9180820D02*
X15481790Y-9210820D01*
X15482670Y-10950750D02*
X15512670Y-10980750D01*
X15512670Y-10950750D02*
X15482670Y-10980750D01*
X15483570Y-7283940D02*
X15513570Y-7313940D01*
X15513570Y-7283940D02*
X15483570Y-7313940D01*
X15485220Y-12863180D02*
X15515220Y-12893180D01*
X15515220Y-12863180D02*
X15485220Y-12893180D01*
X15485600Y-11986500D02*
X15515600Y-12016500D01*
X15515600Y-11986500D02*
X15485600Y-12016500D01*
X15487040Y-11828320D02*
X15517040Y-11858320D01*
X15517040Y-11828320D02*
X15487040Y-11858320D01*
X15487510Y-10074260D02*
X15517510Y-10104260D01*
X15517510Y-10074260D02*
X15487510Y-10104260D01*
X15487880Y-11621760D02*
X15517880Y-11651760D01*
X15517880Y-11621760D02*
X15487880Y-11651760D01*
X15517500Y-12145000D02*
X15547500Y-12175000D01*
X15547500Y-12145000D02*
X15517500Y-12175000D01*
X15527500Y-7465000D02*
X15557500Y-7495000D01*
X15557500Y-7465000D02*
X15527500Y-7495000D01*
X15534780Y-12665950D02*
X15564780Y-12695950D01*
X15564780Y-12665950D02*
X15534780Y-12695950D01*
X15537500Y-10322500D02*
X15567500Y-10352500D01*
X15567500Y-10322500D02*
X15537500Y-10352500D01*
X15547930Y-12759300D02*
X15577930Y-12789300D01*
X15577930Y-12759300D02*
X15547930Y-12789300D01*
X15552890Y-8799010D02*
X15582890Y-8829010D01*
X15582890Y-8799010D02*
X15552890Y-8829010D01*
X15560000Y-6585000D02*
X15590000Y-6615000D01*
X15590000Y-6585000D02*
X15560000Y-6615000D01*
X15560000Y-8410000D02*
X15590000Y-8440000D01*
X15590000Y-8410000D02*
X15560000Y-8440000D01*
X15560000Y-11260000D02*
X15590000Y-11290000D01*
X15590000Y-11260000D02*
X15560000Y-11290000D01*
X15560000Y-13110000D02*
X15590000Y-13140000D01*
X15590000Y-13110000D02*
X15560000Y-13140000D01*
X15560000Y-14035000D02*
X15590000Y-14065000D01*
X15590000Y-14035000D02*
X15560000Y-14065000D01*
X15570410Y-9091520D02*
X15600410Y-9121520D01*
X15600410Y-9091520D02*
X15570410Y-9121520D01*
X15580760Y-10830630D02*
X15610760Y-10860630D01*
X15610760Y-10830630D02*
X15580760Y-10860630D01*
X15583240Y-12622950D02*
X15613240Y-12652950D01*
X15613240Y-12622950D02*
X15583240Y-12652950D01*
X15583330Y-9930450D02*
X15613330Y-9960450D01*
X15613330Y-9930450D02*
X15583330Y-9960450D01*
X15584810Y-7110630D02*
X15614810Y-7140630D01*
X15614810Y-7110630D02*
X15584810Y-7140630D01*
X15585000Y-14385000D02*
X15615000Y-14415000D01*
X15615000Y-14385000D02*
X15585000Y-14415000D01*
X15587020Y-8028290D02*
X15617020Y-8058290D01*
X15617020Y-8028290D02*
X15587020Y-8058290D01*
X15587020Y-9821110D02*
X15617020Y-9851110D01*
X15617020Y-9821110D02*
X15587020Y-9851110D01*
X15610000Y-9452500D02*
X15640000Y-9482500D01*
X15640000Y-9452500D02*
X15610000Y-9482500D01*
X15613090Y-6269950D02*
X15643090Y-6299950D01*
X15643090Y-6269950D02*
X15613090Y-6299950D01*
X15613090Y-8094180D02*
X15643090Y-8124180D01*
X15643090Y-8094180D02*
X15613090Y-8124180D01*
X15613590Y-11725030D02*
X15643590Y-11755030D01*
X15643590Y-11725030D02*
X15613590Y-11755030D01*
X15618200Y-10894710D02*
X15648200Y-10924710D01*
X15648200Y-10894710D02*
X15618200Y-10924710D01*
X15627400Y-12758900D02*
X15657400Y-12788900D01*
X15657400Y-12758900D02*
X15627400Y-12788900D01*
X15638110Y-9103730D02*
X15668110Y-9133730D01*
X15668110Y-9103730D02*
X15638110Y-9133730D01*
X15649690Y-7917930D02*
X15679690Y-7947930D01*
X15679690Y-7917930D02*
X15649690Y-7947930D01*
X15657500Y-11882450D02*
X15687500Y-11912450D01*
X15687500Y-11882450D02*
X15657500Y-11912450D01*
X15679760Y-12546740D02*
X15709760Y-12576740D01*
X15709760Y-12546740D02*
X15679760Y-12576740D01*
X15685000Y-7015042D02*
X15715000Y-7045042D01*
X15715000Y-7015042D02*
X15685000Y-7045042D01*
X15685000Y-8915042D02*
X15715000Y-8945042D01*
X15715000Y-8915042D02*
X15685000Y-8945042D01*
X15685000Y-9815042D02*
X15715000Y-9845042D01*
X15715000Y-9815042D02*
X15685000Y-9845042D01*
X15685000Y-10715042D02*
X15715000Y-10745042D01*
X15715000Y-10715042D02*
X15685000Y-10745042D01*
X15685000Y-12615042D02*
X15715000Y-12645042D01*
X15715000Y-12615042D02*
X15685000Y-12645042D01*
X15685000Y-13515042D02*
X15715000Y-13545042D01*
X15715000Y-13515042D02*
X15685000Y-13545042D01*
X15686220Y-13669490D02*
X15716220Y-13699490D01*
X15716220Y-13669490D02*
X15686220Y-13699490D01*
X15706550Y-12803860D02*
X15736550Y-12833860D01*
X15736550Y-12803860D02*
X15706550Y-12833860D01*
X15745790Y-12540120D02*
X15775790Y-12570120D01*
X15775790Y-12540120D02*
X15745790Y-12570120D01*
X15752640Y-7181080D02*
X15782640Y-7211080D01*
X15782640Y-7181080D02*
X15752640Y-7211080D01*
X15757950Y-11893520D02*
X15787950Y-11923520D01*
X15787950Y-11893520D02*
X15757950Y-11923520D01*
X15760000Y-6130000D02*
X15790000Y-6160000D01*
X15790000Y-6130000D02*
X15760000Y-6160000D01*
X15761450Y-11715042D02*
X15791450Y-11745042D01*
X15791450Y-11715042D02*
X15761450Y-11745042D01*
X15762680Y-9072470D02*
X15792680Y-9102470D01*
X15792680Y-9072470D02*
X15762680Y-9102470D01*
X15775410Y-10900810D02*
X15805410Y-10930810D01*
X15805410Y-10900810D02*
X15775410Y-10930810D01*
X15786370Y-11029680D02*
X15816370Y-11059680D01*
X15816370Y-11029680D02*
X15786370Y-11059680D01*
X15789280Y-9962090D02*
X15819280Y-9992090D01*
X15819280Y-9962090D02*
X15789280Y-9992090D01*
X15794790Y-10074460D02*
X15824790Y-10104460D01*
X15824790Y-10074460D02*
X15794790Y-10104460D01*
X15807010Y-7261940D02*
X15837010Y-7291940D01*
X15837010Y-7261940D02*
X15807010Y-7291940D01*
X15815940Y-11948930D02*
X15845940Y-11978930D01*
X15845940Y-11948930D02*
X15815940Y-11978930D01*
X15816790Y-11866870D02*
X15846790Y-11896870D01*
X15846790Y-11866870D02*
X15816790Y-11896870D01*
X15819200Y-9058490D02*
X15849200Y-9088490D01*
X15849200Y-9058490D02*
X15819200Y-9088490D01*
X15825610Y-9150540D02*
X15855610Y-9180540D01*
X15855610Y-9150540D02*
X15825610Y-9180540D01*
X15827430Y-13727040D02*
X15857430Y-13757040D01*
X15857430Y-13727040D02*
X15827430Y-13757040D01*
X15829250Y-10950040D02*
X15859250Y-10980040D01*
X15859250Y-10950040D02*
X15829250Y-10980040D01*
X15829840Y-6330560D02*
X15859840Y-6360560D01*
X15859840Y-6330560D02*
X15829840Y-6360560D01*
X15833540Y-13795420D02*
X15863540Y-13825420D01*
X15863540Y-13795420D02*
X15833540Y-13825420D01*
X15859800Y-12856660D02*
X15889800Y-12886660D01*
X15889800Y-12856660D02*
X15859800Y-12886660D01*
X15864360Y-10119390D02*
X15894360Y-10149390D01*
X15894360Y-10119390D02*
X15864360Y-10149390D01*
X15866120Y-6509810D02*
X15896120Y-6539810D01*
X15896120Y-6509810D02*
X15866120Y-6539810D01*
X15872900Y-7338220D02*
X15902900Y-7368220D01*
X15902900Y-7338220D02*
X15872900Y-7368220D01*
X15872900Y-9223560D02*
X15902900Y-9253560D01*
X15902900Y-9223560D02*
X15872900Y-9253560D01*
X15872900Y-12023560D02*
X15902900Y-12053560D01*
X15902900Y-12023560D02*
X15872900Y-12053560D01*
X15874350Y-8311630D02*
X15904350Y-8341630D01*
X15904350Y-8311630D02*
X15874350Y-8341630D01*
X15879730Y-12975890D02*
X15909730Y-13005890D01*
X15909730Y-12975890D02*
X15879730Y-13005890D01*
X15880440Y-11626820D02*
X15910440Y-11656820D01*
X15910440Y-11626820D02*
X15880440Y-11656820D01*
X15887630Y-9289080D02*
X15917630Y-9319080D01*
X15917630Y-9289080D02*
X15887630Y-9319080D01*
X15892270Y-9773810D02*
X15922270Y-9803810D01*
X15922270Y-9773810D02*
X15892270Y-9803810D01*
X15892280Y-6451090D02*
X15922280Y-6481090D01*
X15922280Y-6451090D02*
X15892280Y-6481090D01*
X15897530Y-9072460D02*
X15927530Y-9102460D01*
X15927530Y-9072460D02*
X15897530Y-9102460D01*
X15897680Y-8674800D02*
X15927680Y-8704800D01*
X15927680Y-8674800D02*
X15897680Y-8704800D01*
X15911050Y-13037880D02*
X15941050Y-13067880D01*
X15941050Y-13037880D02*
X15911050Y-13067880D01*
X15930020Y-7676620D02*
X15960020Y-7706620D01*
X15960020Y-7676620D02*
X15930020Y-7706620D01*
X15957070Y-8635260D02*
X15987070Y-8665260D01*
X15987070Y-8635260D02*
X15957070Y-8665260D01*
X15959770Y-9335280D02*
X15989770Y-9365280D01*
X15989770Y-9335280D02*
X15959770Y-9365280D01*
X15985000Y-5485000D02*
X16015000Y-5515000D01*
X16015000Y-5485000D02*
X15985000Y-5515000D01*
X15992900Y-8831920D02*
X16022900Y-8861920D01*
X16022900Y-8831920D02*
X15992900Y-8861920D01*
X16015000Y-7894580D02*
X16045000Y-7924580D01*
X16045000Y-7894580D02*
X16015000Y-7924580D01*
X16015000Y-11563220D02*
X16045000Y-11593220D01*
X16045000Y-11563220D02*
X16015000Y-11593220D01*
X16018140Y-6273600D02*
X16048140Y-6303600D01*
X16048140Y-6273600D02*
X16018140Y-6303600D01*
X16045680Y-8610000D02*
X16075680Y-8640000D01*
X16075680Y-8610000D02*
X16045680Y-8640000D01*
X16153760Y-14381760D02*
X16183760Y-14411760D01*
X16183760Y-14381760D02*
X16153760Y-14411760D01*
X16197230Y-13497530D02*
X16227230Y-13527530D01*
X16227230Y-13497530D02*
X16197230Y-13527530D01*
X16208000Y-6734780D02*
X16238000Y-6764780D01*
X16238000Y-6734780D02*
X16208000Y-6764780D01*
X16213400Y-6958640D02*
X16243400Y-6988640D01*
X16243400Y-6958640D02*
X16213400Y-6988640D01*
X16213400Y-10626510D02*
X16243400Y-10656510D01*
X16243400Y-10626510D02*
X16213400Y-10656510D01*
X16213400Y-14362620D02*
X16243400Y-14392620D01*
X16243400Y-14362620D02*
X16213400Y-14392620D01*
X16390100Y-10634110D02*
X16420100Y-10664110D01*
X16420100Y-10634110D02*
X16390100Y-10664110D01*
X16411800Y-9777760D02*
X16441800Y-9807760D01*
X16441800Y-9777760D02*
X16411800Y-9807760D01*
X16411800Y-11535120D02*
X16441800Y-11565120D01*
X16441800Y-11535120D02*
X16411800Y-11565120D01*
X16411800Y-14305330D02*
X16441800Y-14335330D01*
X16441800Y-14305330D02*
X16411800Y-14335330D01*
X16550560Y-7787210D02*
X16580560Y-7817210D01*
X16580560Y-7787210D02*
X16550560Y-7817210D01*
X16550560Y-10592880D02*
X16580560Y-10622880D01*
X16580560Y-10592880D02*
X16550560Y-10622880D01*
X16585000Y-5485000D02*
X16615000Y-5515000D01*
X16615000Y-5485000D02*
X16585000Y-5515000D01*
X16610200Y-6932660D02*
X16640200Y-6962660D01*
X16640200Y-6932660D02*
X16610200Y-6962660D01*
X16610200Y-7773670D02*
X16640200Y-7803670D01*
X16640200Y-7773670D02*
X16610200Y-7803670D01*
X16610200Y-10579490D02*
X16640200Y-10609490D01*
X16640200Y-10579490D02*
X16610200Y-10609490D01*
X16610200Y-13378210D02*
X16640200Y-13408210D01*
X16640200Y-13378210D02*
X16610200Y-13408210D01*
X16685000Y-14385000D02*
X16715000Y-14415000D01*
X16715000Y-14385000D02*
X16685000Y-14415000D01*
X16781080Y-10514400D02*
X16811080Y-10544400D01*
X16811080Y-10514400D02*
X16781080Y-10544400D01*
X16797850Y-13330980D02*
X16827850Y-13360980D01*
X16827850Y-13330980D02*
X16797850Y-13360980D01*
X16808600Y-8562340D02*
X16838600Y-8592340D01*
X16838600Y-8562340D02*
X16808600Y-8592340D01*
X16808600Y-9764740D02*
X16838600Y-9794740D01*
X16838600Y-9764740D02*
X16808600Y-9794740D01*
X16808600Y-11484980D02*
X16838600Y-11514980D01*
X16838600Y-11484980D02*
X16808600Y-11514980D01*
X16808600Y-12551800D02*
X16838600Y-12581800D01*
X16838600Y-12551800D02*
X16808600Y-12581800D01*
X16808600Y-14177830D02*
X16838600Y-14207830D01*
X16838600Y-14177830D02*
X16808600Y-14207830D01*
X17007000Y-5645640D02*
X17037000Y-5675640D01*
X17037000Y-5645640D02*
X17007000Y-5675640D01*
X17007000Y-12551800D02*
X17037000Y-12581800D01*
X17037000Y-12551800D02*
X17007000Y-12581800D01*
X17007000Y-13316710D02*
X17037000Y-13346710D01*
X17037000Y-13316710D02*
X17007000Y-13346710D01*
X17059780Y-12509650D02*
X17089780Y-12539650D01*
X17089780Y-12509650D02*
X17059780Y-12539650D01*
X17185000Y-14385000D02*
X17215000Y-14415000D01*
X17215000Y-14385000D02*
X17185000Y-14415000D01*
X17205120Y-9738700D02*
X17235120Y-9768700D01*
X17235120Y-9738700D02*
X17205120Y-9768700D01*
X17205400Y-8536540D02*
X17235400Y-8566540D01*
X17235400Y-8536540D02*
X17205400Y-8566540D01*
X17205400Y-11355150D02*
X17235400Y-11385150D01*
X17235400Y-11355150D02*
X17205400Y-11385150D01*
X17205400Y-14155200D02*
X17235400Y-14185200D01*
X17235400Y-14155200D02*
X17205400Y-14185200D01*
X17403800Y-7735530D02*
X17433800Y-7765530D01*
X17433800Y-7735530D02*
X17403800Y-7765530D01*
X17403800Y-8511520D02*
X17433800Y-8541520D01*
X17433800Y-8511520D02*
X17403800Y-8541520D01*
X17403800Y-9040920D02*
X17433800Y-9070920D01*
X17433800Y-9040920D02*
X17403800Y-9070920D01*
X17403800Y-10540310D02*
X17433800Y-10570310D01*
X17433800Y-10540310D02*
X17403800Y-10570310D01*
X17403800Y-13292140D02*
X17433800Y-13322140D01*
X17433800Y-13292140D02*
X17403800Y-13322140D01*
X17403800Y-14130180D02*
X17433800Y-14160180D01*
X17433800Y-14130180D02*
X17403800Y-14160180D01*
X17460680Y-10455080D02*
X17490680Y-10485080D01*
X17490680Y-10455080D02*
X17460680Y-10485080D01*
X17585000Y-5585000D02*
X17615000Y-5615000D01*
X17615000Y-5585000D02*
X17585000Y-5615000D01*
X17602200Y-7684670D02*
X17632200Y-7714670D01*
X17632200Y-7684670D02*
X17602200Y-7714670D01*
X17680940Y-14130180D02*
X17710940Y-14160180D01*
X17710940Y-14130180D02*
X17680940Y-14160180D01*
X17792200Y-14294340D02*
X17822200Y-14324340D01*
X17822200Y-14294340D02*
X17792200Y-14324340D01*
X18043480Y-11487380D02*
X18073480Y-11517380D01*
X18073480Y-11487380D02*
X18043480Y-11517380D01*
X18285000Y-5685000D02*
X18315000Y-5715000D01*
X18315000Y-5685000D02*
X18285000Y-5715000D01*
X18285000Y-6485000D02*
X18315000Y-6515000D01*
X18315000Y-6485000D02*
X18285000Y-6515000D01*
X18285000Y-7185000D02*
X18315000Y-7215000D01*
X18315000Y-7185000D02*
X18285000Y-7215000D01*
X18285000Y-7885000D02*
X18315000Y-7915000D01*
X18315000Y-7885000D02*
X18285000Y-7915000D01*
X18285000Y-8585000D02*
X18315000Y-8615000D01*
X18315000Y-8585000D02*
X18285000Y-8615000D01*
X18285000Y-9285000D02*
X18315000Y-9315000D01*
X18315000Y-9285000D02*
X18285000Y-9315000D01*
X18285000Y-9985000D02*
X18315000Y-10015000D01*
X18315000Y-9985000D02*
X18285000Y-10015000D01*
X18285000Y-10685000D02*
X18315000Y-10715000D01*
X18315000Y-10685000D02*
X18285000Y-10715000D01*
X18285000Y-11385000D02*
X18315000Y-11415000D01*
X18315000Y-11385000D02*
X18285000Y-11415000D01*
X18285000Y-12085000D02*
X18315000Y-12115000D01*
X18315000Y-12085000D02*
X18285000Y-12115000D01*
X18285000Y-12785000D02*
X18315000Y-12815000D01*
X18315000Y-12785000D02*
X18285000Y-12815000D01*
X18285000Y-13485000D02*
X18315000Y-13515000D01*
X18315000Y-13485000D02*
X18285000Y-13515000D01*
X18285000Y-14085000D02*
X18315000Y-14115000D01*
X18315000Y-14085000D02*
X18285000Y-14115000D01*
X18385000Y-6085000D02*
X18415000Y-6115000D01*
X18415000Y-6085000D02*
X18385000Y-6115000D01*
X18385000Y-6785000D02*
X18415000Y-6815000D01*
X18415000Y-6785000D02*
X18385000Y-6815000D01*
X18385000Y-7485000D02*
X18415000Y-7515000D01*
X18415000Y-7485000D02*
X18385000Y-7515000D01*
X18385000Y-8185000D02*
X18415000Y-8215000D01*
X18415000Y-8185000D02*
X18385000Y-8215000D01*
X18385000Y-8885000D02*
X18415000Y-8915000D01*
X18415000Y-8885000D02*
X18385000Y-8915000D01*
X18385000Y-9585000D02*
X18415000Y-9615000D01*
X18415000Y-9585000D02*
X18385000Y-9615000D01*
X18385000Y-10285000D02*
X18415000Y-10315000D01*
X18415000Y-10285000D02*
X18385000Y-10315000D01*
X18385000Y-10985000D02*
X18415000Y-11015000D01*
X18415000Y-10985000D02*
X18385000Y-11015000D01*
X18385000Y-11685000D02*
X18415000Y-11715000D01*
X18415000Y-11685000D02*
X18385000Y-11715000D01*
X18385000Y-12385000D02*
X18415000Y-12415000D01*
X18415000Y-12385000D02*
X18385000Y-12415000D01*
X18385000Y-13085000D02*
X18415000Y-13115000D01*
X18415000Y-13085000D02*
X18385000Y-13115000D01*
X18385000Y-13785000D02*
X18415000Y-13815000D01*
X18415000Y-13785000D02*
X18385000Y-13815000D01*
X10281110Y-12322960D02*
G75*
G03X10281110Y-12322960I-19550J0D01*
G01*
X10298910Y-11943740D02*
G75*
G03X10298910Y-11943740I-19550J0D01*
G01*
X11510550Y-12827970D02*
G75*
G03X11510550Y-12827970I-19550J0D01*
G01*
X11660550Y-12550990D02*
G75*
G03X11660550Y-12550990I-19550J0D01*
G01*
X10446000Y-5743000D02*
X10446000Y-5803000D01*
X10416000Y-5773000D02*
X10476000Y-5773000D01*
X10446000Y-5997000D02*
X10446000Y-6057000D01*
X10416000Y-6027000D02*
X10476000Y-6027000D01*
X10573000Y-5743000D02*
X10573000Y-5803000D01*
X10543000Y-5773000D02*
X10603000Y-5773000D01*
X10573000Y-5997000D02*
X10573000Y-6057000D01*
X10543000Y-6027000D02*
X10603000Y-6027000D01*
X10700000Y-5743000D02*
X10700000Y-5803000D01*
X10670000Y-5773000D02*
X10730000Y-5773000D01*
X10700000Y-5997000D02*
X10700000Y-6057000D01*
X10670000Y-6027000D02*
X10730000Y-6027000D01*
X10827000Y-5743000D02*
X10827000Y-5803000D01*
X10797000Y-5773000D02*
X10857000Y-5773000D01*
X10827000Y-5997000D02*
X10827000Y-6057000D01*
X10797000Y-6027000D02*
X10857000Y-6027000D01*
X10954000Y-5743000D02*
X10954000Y-5803000D01*
X10924000Y-5773000D02*
X10984000Y-5773000D01*
X10954000Y-5997000D02*
X10954000Y-6057000D01*
X10924000Y-6027000D02*
X10984000Y-6027000D01*
X9131820Y-6111820D02*
X9131820Y-6048180D01*
X9068180Y-6048180D01*
X9068180Y-6111820D01*
X9131820Y-6111820D01*
X9131820Y-6551820D02*
X9131820Y-6488180D01*
X9068180Y-6488180D01*
X9068180Y-6551820D01*
X9131820Y-6551820D01*
X11016000Y-11170800D02*
X11066800Y-11120000D01*
X11016000Y-11069200D01*
X10965200Y-11120000D01*
X11016000Y-11170800D01*
X11270000Y-11170800D02*
X11320800Y-11120000D01*
X11270000Y-11069200D01*
X11219200Y-11120000D01*
X11270000Y-11170800D01*
X11273000Y-6623800D02*
X11323800Y-6573000D01*
X11273000Y-6522200D01*
X11222200Y-6573000D01*
X11273000Y-6623800D01*
X11273000Y-6877800D02*
X11323800Y-6827000D01*
X11273000Y-6776200D01*
X11222200Y-6827000D01*
X11273000Y-6877800D01*
X11273000Y-7573800D02*
X11323800Y-7523000D01*
X11273000Y-7472200D01*
X11222200Y-7523000D01*
X11273000Y-7573800D01*
X11273000Y-7827800D02*
X11323800Y-7777000D01*
X11273000Y-7726200D01*
X11222200Y-7777000D01*
X11273000Y-7827800D01*
X11273000Y-8548800D02*
X11323800Y-8498000D01*
X11273000Y-8447200D01*
X11222200Y-8498000D01*
X11273000Y-8548800D01*
X11273000Y-8802800D02*
X11323800Y-8752000D01*
X11273000Y-8701200D01*
X11222200Y-8752000D01*
X11273000Y-8802800D01*
X11524000Y-11170800D02*
X11574800Y-11120000D01*
X11524000Y-11069200D01*
X11473200Y-11120000D01*
X11524000Y-11170800D01*
X11527000Y-6623800D02*
X11577800Y-6573000D01*
X11527000Y-6522200D01*
X11476200Y-6573000D01*
X11527000Y-6623800D01*
X11527000Y-6877800D02*
X11577800Y-6827000D01*
X11527000Y-6776200D01*
X11476200Y-6827000D01*
X11527000Y-6877800D01*
X11527000Y-7573800D02*
X11577800Y-7523000D01*
X11527000Y-7472200D01*
X11476200Y-7523000D01*
X11527000Y-7573800D01*
X11527000Y-7827800D02*
X11577800Y-7777000D01*
X11527000Y-7726200D01*
X11476200Y-7777000D01*
X11527000Y-7827800D01*
X11527000Y-8548800D02*
X11577800Y-8498000D01*
X11527000Y-8447200D01*
X11476200Y-8498000D01*
X11527000Y-8548800D01*
X11527000Y-8802800D02*
X11577800Y-8752000D01*
X11527000Y-8701200D01*
X11476200Y-8752000D01*
X11527000Y-8802800D01*
X12400000Y-9768800D02*
X12450800Y-9718000D01*
X12400000Y-9667200D01*
X12349200Y-9718000D01*
X12400000Y-9768800D01*
X12400000Y-10022800D02*
X12450800Y-9972000D01*
X12400000Y-9921200D01*
X12349200Y-9972000D01*
X12400000Y-10022800D01*
X12400000Y-10294800D02*
X12450800Y-10244000D01*
X12400000Y-10193200D01*
X12349200Y-10244000D01*
X12400000Y-10294800D01*
X12400000Y-10548800D02*
X12450800Y-10498000D01*
X12400000Y-10447200D01*
X12349200Y-10498000D01*
X12400000Y-10548800D01*
X12868000Y-6150800D02*
X12918800Y-6100000D01*
X12868000Y-6049200D01*
X12817200Y-6100000D01*
X12868000Y-6150800D01*
X12868000Y-6850800D02*
X12918800Y-6800000D01*
X12868000Y-6749200D01*
X12817200Y-6800000D01*
X12868000Y-6850800D01*
X12868000Y-7550800D02*
X12918800Y-7500000D01*
X12868000Y-7449200D01*
X12817200Y-7500000D01*
X12868000Y-7550800D01*
X12868000Y-8250800D02*
X12918800Y-8200000D01*
X12868000Y-8149200D01*
X12817200Y-8200000D01*
X12868000Y-8250800D01*
X12868000Y-8950800D02*
X12918800Y-8900000D01*
X12868000Y-8849200D01*
X12817200Y-8900000D01*
X12868000Y-8950800D01*
X12868000Y-9650800D02*
X12918800Y-9600000D01*
X12868000Y-9549200D01*
X12817200Y-9600000D01*
X12868000Y-9650800D01*
X12868000Y-10350800D02*
X12918800Y-10300000D01*
X12868000Y-10249200D01*
X12817200Y-10300000D01*
X12868000Y-10350800D01*
X12868000Y-11050800D02*
X12918800Y-11000000D01*
X12868000Y-10949200D01*
X12817200Y-11000000D01*
X12868000Y-11050800D01*
X12868000Y-11750800D02*
X12918800Y-11700000D01*
X12868000Y-11649200D01*
X12817200Y-11700000D01*
X12868000Y-11750800D01*
X12868000Y-12450800D02*
X12918800Y-12400000D01*
X12868000Y-12349200D01*
X12817200Y-12400000D01*
X12868000Y-12450800D01*
X12868000Y-13150800D02*
X12918800Y-13100000D01*
X12868000Y-13049200D01*
X12817200Y-13100000D01*
X12868000Y-13150800D01*
X12868000Y-13850800D02*
X12918800Y-13800000D01*
X12868000Y-13749200D01*
X12817200Y-13800000D01*
X12868000Y-13850800D01*
X13122000Y-6150800D02*
X13172800Y-6100000D01*
X13122000Y-6049200D01*
X13071200Y-6100000D01*
X13122000Y-6150800D01*
X13122000Y-6850800D02*
X13172800Y-6800000D01*
X13122000Y-6749200D01*
X13071200Y-6800000D01*
X13122000Y-6850800D01*
X13122000Y-7550800D02*
X13172800Y-7500000D01*
X13122000Y-7449200D01*
X13071200Y-7500000D01*
X13122000Y-7550800D01*
X13122000Y-8250800D02*
X13172800Y-8200000D01*
X13122000Y-8149200D01*
X13071200Y-8200000D01*
X13122000Y-8250800D01*
X13122000Y-8950800D02*
X13172800Y-8900000D01*
X13122000Y-8849200D01*
X13071200Y-8900000D01*
X13122000Y-8950800D01*
X13122000Y-9650800D02*
X13172800Y-9600000D01*
X13122000Y-9549200D01*
X13071200Y-9600000D01*
X13122000Y-9650800D01*
X13122000Y-10350800D02*
X13172800Y-10300000D01*
X13122000Y-10249200D01*
X13071200Y-10300000D01*
X13122000Y-10350800D01*
X13122000Y-11050800D02*
X13172800Y-11000000D01*
X13122000Y-10949200D01*
X13071200Y-11000000D01*
X13122000Y-11050800D01*
X13122000Y-11750800D02*
X13172800Y-11700000D01*
X13122000Y-11649200D01*
X13071200Y-11700000D01*
X13122000Y-11750800D01*
X13122000Y-12450800D02*
X13172800Y-12400000D01*
X13122000Y-12349200D01*
X13071200Y-12400000D01*
X13122000Y-12450800D01*
X13122000Y-13150800D02*
X13172800Y-13100000D01*
X13122000Y-13049200D01*
X13071200Y-13100000D01*
X13122000Y-13150800D01*
X13122000Y-13850800D02*
X13172800Y-13800000D01*
X13122000Y-13749200D01*
X13071200Y-13800000D01*
X13122000Y-13850800D01*
X13394000Y-6150800D02*
X13444800Y-6100000D01*
X13394000Y-6049200D01*
X13343200Y-6100000D01*
X13394000Y-6150800D01*
X13394000Y-6850800D02*
X13444800Y-6800000D01*
X13394000Y-6749200D01*
X13343200Y-6800000D01*
X13394000Y-6850800D01*
X13394000Y-7550800D02*
X13444800Y-7500000D01*
X13394000Y-7449200D01*
X13343200Y-7500000D01*
X13394000Y-7550800D01*
X13394000Y-8250800D02*
X13444800Y-8200000D01*
X13394000Y-8149200D01*
X13343200Y-8200000D01*
X13394000Y-8250800D01*
X13394000Y-8950800D02*
X13444800Y-8900000D01*
X13394000Y-8849200D01*
X13343200Y-8900000D01*
X13394000Y-8950800D01*
X13394000Y-9650800D02*
X13444800Y-9600000D01*
X13394000Y-9549200D01*
X13343200Y-9600000D01*
X13394000Y-9650800D01*
X13394000Y-10350800D02*
X13444800Y-10300000D01*
X13394000Y-10249200D01*
X13343200Y-10300000D01*
X13394000Y-10350800D01*
X13394000Y-11050800D02*
X13444800Y-11000000D01*
X13394000Y-10949200D01*
X13343200Y-11000000D01*
X13394000Y-11050800D01*
X13394000Y-11750800D02*
X13444800Y-11700000D01*
X13394000Y-11649200D01*
X13343200Y-11700000D01*
X13394000Y-11750800D01*
X13394000Y-12450800D02*
X13444800Y-12400000D01*
X13394000Y-12349200D01*
X13343200Y-12400000D01*
X13394000Y-12450800D01*
X13394000Y-13150800D02*
X13444800Y-13100000D01*
X13394000Y-13049200D01*
X13343200Y-13100000D01*
X13394000Y-13150800D01*
X13394000Y-13850800D02*
X13444800Y-13800000D01*
X13394000Y-13749200D01*
X13343200Y-13800000D01*
X13394000Y-13850800D01*
X13648000Y-6150800D02*
X13698800Y-6100000D01*
X13648000Y-6049200D01*
X13597200Y-6100000D01*
X13648000Y-6150800D01*
X13648000Y-6850800D02*
X13698800Y-6800000D01*
X13648000Y-6749200D01*
X13597200Y-6800000D01*
X13648000Y-6850800D01*
X13648000Y-7550800D02*
X13698800Y-7500000D01*
X13648000Y-7449200D01*
X13597200Y-7500000D01*
X13648000Y-7550800D01*
X13648000Y-8250800D02*
X13698800Y-8200000D01*
X13648000Y-8149200D01*
X13597200Y-8200000D01*
X13648000Y-8250800D01*
X13648000Y-8950800D02*
X13698800Y-8900000D01*
X13648000Y-8849200D01*
X13597200Y-8900000D01*
X13648000Y-8950800D01*
X13648000Y-9650800D02*
X13698800Y-9600000D01*
X13648000Y-9549200D01*
X13597200Y-9600000D01*
X13648000Y-9650800D01*
X13648000Y-10350800D02*
X13698800Y-10300000D01*
X13648000Y-10249200D01*
X13597200Y-10300000D01*
X13648000Y-10350800D01*
X13648000Y-11050800D02*
X13698800Y-11000000D01*
X13648000Y-10949200D01*
X13597200Y-11000000D01*
X13648000Y-11050800D01*
X13648000Y-11750800D02*
X13698800Y-11700000D01*
X13648000Y-11649200D01*
X13597200Y-11700000D01*
X13648000Y-11750800D01*
X13648000Y-12450800D02*
X13698800Y-12400000D01*
X13648000Y-12349200D01*
X13597200Y-12400000D01*
X13648000Y-12450800D01*
X13648000Y-13150800D02*
X13698800Y-13100000D01*
X13648000Y-13049200D01*
X13597200Y-13100000D01*
X13648000Y-13150800D01*
X13648000Y-13850800D02*
X13698800Y-13800000D01*
X13648000Y-13749200D01*
X13597200Y-13800000D01*
X13648000Y-13850800D01*
X13902000Y-6150800D02*
X13952800Y-6100000D01*
X13902000Y-6049200D01*
X13851200Y-6100000D01*
X13902000Y-6150800D01*
X13902000Y-6850800D02*
X13952800Y-6800000D01*
X13902000Y-6749200D01*
X13851200Y-6800000D01*
X13902000Y-6850800D01*
X13902000Y-7550800D02*
X13952800Y-7500000D01*
X13902000Y-7449200D01*
X13851200Y-7500000D01*
X13902000Y-7550800D01*
X13902000Y-8250800D02*
X13952800Y-8200000D01*
X13902000Y-8149200D01*
X13851200Y-8200000D01*
X13902000Y-8250800D01*
X13902000Y-8950800D02*
X13952800Y-8900000D01*
X13902000Y-8849200D01*
X13851200Y-8900000D01*
X13902000Y-8950800D01*
X13902000Y-9650800D02*
X13952800Y-9600000D01*
X13902000Y-9549200D01*
X13851200Y-9600000D01*
X13902000Y-9650800D01*
X13902000Y-10350800D02*
X13952800Y-10300000D01*
X13902000Y-10249200D01*
X13851200Y-10300000D01*
X13902000Y-10350800D01*
X13902000Y-11050800D02*
X13952800Y-11000000D01*
X13902000Y-10949200D01*
X13851200Y-11000000D01*
X13902000Y-11050800D01*
X13902000Y-11750800D02*
X13952800Y-11700000D01*
X13902000Y-11649200D01*
X13851200Y-11700000D01*
X13902000Y-11750800D01*
X13902000Y-12450800D02*
X13952800Y-12400000D01*
X13902000Y-12349200D01*
X13851200Y-12400000D01*
X13902000Y-12450800D01*
X13902000Y-13150800D02*
X13952800Y-13100000D01*
X13902000Y-13049200D01*
X13851200Y-13100000D01*
X13902000Y-13150800D01*
X13902000Y-13850800D02*
X13952800Y-13800000D01*
X13902000Y-13749200D01*
X13851200Y-13800000D01*
X13902000Y-13850800D01*
X14156000Y-6150800D02*
X14206800Y-6100000D01*
X14156000Y-6049200D01*
X14105200Y-6100000D01*
X14156000Y-6150800D01*
X14156000Y-6850800D02*
X14206800Y-6800000D01*
X14156000Y-6749200D01*
X14105200Y-6800000D01*
X14156000Y-6850800D01*
X14156000Y-7550800D02*
X14206800Y-7500000D01*
X14156000Y-7449200D01*
X14105200Y-7500000D01*
X14156000Y-7550800D01*
X14156000Y-8250800D02*
X14206800Y-8200000D01*
X14156000Y-8149200D01*
X14105200Y-8200000D01*
X14156000Y-8250800D01*
X14156000Y-8950800D02*
X14206800Y-8900000D01*
X14156000Y-8849200D01*
X14105200Y-8900000D01*
X14156000Y-8950800D01*
X14156000Y-9650800D02*
X14206800Y-9600000D01*
X14156000Y-9549200D01*
X14105200Y-9600000D01*
X14156000Y-9650800D01*
X14156000Y-10350800D02*
X14206800Y-10300000D01*
X14156000Y-10249200D01*
X14105200Y-10300000D01*
X14156000Y-10350800D01*
X14156000Y-11050800D02*
X14206800Y-11000000D01*
X14156000Y-10949200D01*
X14105200Y-11000000D01*
X14156000Y-11050800D01*
X14156000Y-11750800D02*
X14206800Y-11700000D01*
X14156000Y-11649200D01*
X14105200Y-11700000D01*
X14156000Y-11750800D01*
X14156000Y-12450800D02*
X14206800Y-12400000D01*
X14156000Y-12349200D01*
X14105200Y-12400000D01*
X14156000Y-12450800D01*
X14156000Y-13150800D02*
X14206800Y-13100000D01*
X14156000Y-13049200D01*
X14105200Y-13100000D01*
X14156000Y-13150800D01*
X14156000Y-13850800D02*
X14206800Y-13800000D01*
X14156000Y-13749200D01*
X14105200Y-13800000D01*
X14156000Y-13850800D01*
X14428000Y-6150800D02*
X14478800Y-6100000D01*
X14428000Y-6049200D01*
X14377200Y-6100000D01*
X14428000Y-6150800D01*
X14428000Y-6850800D02*
X14478800Y-6800000D01*
X14428000Y-6749200D01*
X14377200Y-6800000D01*
X14428000Y-6850800D01*
X14428000Y-7550800D02*
X14478800Y-7500000D01*
X14428000Y-7449200D01*
X14377200Y-7500000D01*
X14428000Y-7550800D01*
X14428000Y-8250800D02*
X14478800Y-8200000D01*
X14428000Y-8149200D01*
X14377200Y-8200000D01*
X14428000Y-8250800D01*
X14428000Y-8950800D02*
X14478800Y-8900000D01*
X14428000Y-8849200D01*
X14377200Y-8900000D01*
X14428000Y-8950800D01*
X14428000Y-9650800D02*
X14478800Y-9600000D01*
X14428000Y-9549200D01*
X14377200Y-9600000D01*
X14428000Y-9650800D01*
X14428000Y-10350800D02*
X14478800Y-10300000D01*
X14428000Y-10249200D01*
X14377200Y-10300000D01*
X14428000Y-10350800D01*
X14428000Y-11050800D02*
X14478800Y-11000000D01*
X14428000Y-10949200D01*
X14377200Y-11000000D01*
X14428000Y-11050800D01*
X14428000Y-11750800D02*
X14478800Y-11700000D01*
X14428000Y-11649200D01*
X14377200Y-11700000D01*
X14428000Y-11750800D01*
X14428000Y-12450800D02*
X14478800Y-12400000D01*
X14428000Y-12349200D01*
X14377200Y-12400000D01*
X14428000Y-12450800D01*
X14428000Y-13150800D02*
X14478800Y-13100000D01*
X14428000Y-13049200D01*
X14377200Y-13100000D01*
X14428000Y-13150800D01*
X14428000Y-13850800D02*
X14478800Y-13800000D01*
X14428000Y-13749200D01*
X14377200Y-13800000D01*
X14428000Y-13850800D01*
X14682000Y-6150800D02*
X14732800Y-6100000D01*
X14682000Y-6049200D01*
X14631200Y-6100000D01*
X14682000Y-6150800D01*
X14682000Y-6850800D02*
X14732800Y-6800000D01*
X14682000Y-6749200D01*
X14631200Y-6800000D01*
X14682000Y-6850800D01*
X14682000Y-7550800D02*
X14732800Y-7500000D01*
X14682000Y-7449200D01*
X14631200Y-7500000D01*
X14682000Y-7550800D01*
X14682000Y-8250800D02*
X14732800Y-8200000D01*
X14682000Y-8149200D01*
X14631200Y-8200000D01*
X14682000Y-8250800D01*
X14682000Y-8950800D02*
X14732800Y-8900000D01*
X14682000Y-8849200D01*
X14631200Y-8900000D01*
X14682000Y-8950800D01*
X14682000Y-9650800D02*
X14732800Y-9600000D01*
X14682000Y-9549200D01*
X14631200Y-9600000D01*
X14682000Y-9650800D01*
X14682000Y-10350800D02*
X14732800Y-10300000D01*
X14682000Y-10249200D01*
X14631200Y-10300000D01*
X14682000Y-10350800D01*
X14682000Y-11050800D02*
X14732800Y-11000000D01*
X14682000Y-10949200D01*
X14631200Y-11000000D01*
X14682000Y-11050800D01*
X14682000Y-11750800D02*
X14732800Y-11700000D01*
X14682000Y-11649200D01*
X14631200Y-11700000D01*
X14682000Y-11750800D01*
X14682000Y-12450800D02*
X14732800Y-12400000D01*
X14682000Y-12349200D01*
X14631200Y-12400000D01*
X14682000Y-12450800D01*
X14682000Y-13150800D02*
X14732800Y-13100000D01*
X14682000Y-13049200D01*
X14631200Y-13100000D01*
X14682000Y-13150800D01*
X14682000Y-13850800D02*
X14732800Y-13800000D01*
X14682000Y-13749200D01*
X14631200Y-13800000D01*
X14682000Y-13850800D01*
X16393000Y-6150800D02*
X16443800Y-6100000D01*
X16393000Y-6049200D01*
X16342200Y-6100000D01*
X16393000Y-6150800D01*
X16393000Y-6850800D02*
X16443800Y-6800000D01*
X16393000Y-6749200D01*
X16342200Y-6800000D01*
X16393000Y-6850800D01*
X16393000Y-7550800D02*
X16443800Y-7500000D01*
X16393000Y-7449200D01*
X16342200Y-7500000D01*
X16393000Y-7550800D01*
X16393000Y-8250800D02*
X16443800Y-8200000D01*
X16393000Y-8149200D01*
X16342200Y-8200000D01*
X16393000Y-8250800D01*
X16393000Y-8950800D02*
X16443800Y-8900000D01*
X16393000Y-8849200D01*
X16342200Y-8900000D01*
X16393000Y-8950800D01*
X16393000Y-9650800D02*
X16443800Y-9600000D01*
X16393000Y-9549200D01*
X16342200Y-9600000D01*
X16393000Y-9650800D01*
X16393000Y-10350800D02*
X16443800Y-10300000D01*
X16393000Y-10249200D01*
X16342200Y-10300000D01*
X16393000Y-10350800D01*
X16393000Y-11050800D02*
X16443800Y-11000000D01*
X16393000Y-10949200D01*
X16342200Y-11000000D01*
X16393000Y-11050800D01*
X16393000Y-11750800D02*
X16443800Y-11700000D01*
X16393000Y-11649200D01*
X16342200Y-11700000D01*
X16393000Y-11750800D01*
X16393000Y-12450800D02*
X16443800Y-12400000D01*
X16393000Y-12349200D01*
X16342200Y-12400000D01*
X16393000Y-12450800D01*
X16393000Y-13150800D02*
X16443800Y-13100000D01*
X16393000Y-13049200D01*
X16342200Y-13100000D01*
X16393000Y-13150800D01*
X16393000Y-13850800D02*
X16443800Y-13800000D01*
X16393000Y-13749200D01*
X16342200Y-13800000D01*
X16393000Y-13850800D01*
X16647000Y-6150800D02*
X16697800Y-6100000D01*
X16647000Y-6049200D01*
X16596200Y-6100000D01*
X16647000Y-6150800D01*
X16647000Y-6850800D02*
X16697800Y-6800000D01*
X16647000Y-6749200D01*
X16596200Y-6800000D01*
X16647000Y-6850800D01*
X16647000Y-7550800D02*
X16697800Y-7500000D01*
X16647000Y-7449200D01*
X16596200Y-7500000D01*
X16647000Y-7550800D01*
X16647000Y-8250800D02*
X16697800Y-8200000D01*
X16647000Y-8149200D01*
X16596200Y-8200000D01*
X16647000Y-8250800D01*
X16647000Y-8950800D02*
X16697800Y-8900000D01*
X16647000Y-8849200D01*
X16596200Y-8900000D01*
X16647000Y-8950800D01*
X16647000Y-9650800D02*
X16697800Y-9600000D01*
X16647000Y-9549200D01*
X16596200Y-9600000D01*
X16647000Y-9650800D01*
X16647000Y-10350800D02*
X16697800Y-10300000D01*
X16647000Y-10249200D01*
X16596200Y-10300000D01*
X16647000Y-10350800D01*
X16647000Y-11050800D02*
X16697800Y-11000000D01*
X16647000Y-10949200D01*
X16596200Y-11000000D01*
X16647000Y-11050800D01*
X16647000Y-11750800D02*
X16697800Y-11700000D01*
X16647000Y-11649200D01*
X16596200Y-11700000D01*
X16647000Y-11750800D01*
X16647000Y-12450800D02*
X16697800Y-12400000D01*
X16647000Y-12349200D01*
X16596200Y-12400000D01*
X16647000Y-12450800D01*
X16647000Y-13150800D02*
X16697800Y-13100000D01*
X16647000Y-13049200D01*
X16596200Y-13100000D01*
X16647000Y-13150800D01*
X16647000Y-13850800D02*
X16697800Y-13800000D01*
X16647000Y-13749200D01*
X16596200Y-13800000D01*
X16647000Y-13850800D01*
X16919000Y-6150800D02*
X16969800Y-6100000D01*
X16919000Y-6049200D01*
X16868200Y-6100000D01*
X16919000Y-6150800D01*
X16919000Y-6850800D02*
X16969800Y-6800000D01*
X16919000Y-6749200D01*
X16868200Y-6800000D01*
X16919000Y-6850800D01*
X16919000Y-7550800D02*
X16969800Y-7500000D01*
X16919000Y-7449200D01*
X16868200Y-7500000D01*
X16919000Y-7550800D01*
X16919000Y-8250800D02*
X16969800Y-8200000D01*
X16919000Y-8149200D01*
X16868200Y-8200000D01*
X16919000Y-8250800D01*
X16919000Y-8950800D02*
X16969800Y-8900000D01*
X16919000Y-8849200D01*
X16868200Y-8900000D01*
X16919000Y-8950800D01*
X16919000Y-9650800D02*
X16969800Y-9600000D01*
X16919000Y-9549200D01*
X16868200Y-9600000D01*
X16919000Y-9650800D01*
X16919000Y-10350800D02*
X16969800Y-10300000D01*
X16919000Y-10249200D01*
X16868200Y-10300000D01*
X16919000Y-10350800D01*
X16919000Y-11050800D02*
X16969800Y-11000000D01*
X16919000Y-10949200D01*
X16868200Y-11000000D01*
X16919000Y-11050800D01*
X16919000Y-11750800D02*
X16969800Y-11700000D01*
X16919000Y-11649200D01*
X16868200Y-11700000D01*
X16919000Y-11750800D01*
X16919000Y-12450800D02*
X16969800Y-12400000D01*
X16919000Y-12349200D01*
X16868200Y-12400000D01*
X16919000Y-12450800D01*
X16919000Y-13150800D02*
X16969800Y-13100000D01*
X16919000Y-13049200D01*
X16868200Y-13100000D01*
X16919000Y-13150800D01*
X16919000Y-13850800D02*
X16969800Y-13800000D01*
X16919000Y-13749200D01*
X16868200Y-13800000D01*
X16919000Y-13850800D01*
X17173000Y-6150800D02*
X17223800Y-6100000D01*
X17173000Y-6049200D01*
X17122200Y-6100000D01*
X17173000Y-6150800D01*
X17173000Y-6850800D02*
X17223800Y-6800000D01*
X17173000Y-6749200D01*
X17122200Y-6800000D01*
X17173000Y-6850800D01*
X17173000Y-7550800D02*
X17223800Y-7500000D01*
X17173000Y-7449200D01*
X17122200Y-7500000D01*
X17173000Y-7550800D01*
X17173000Y-8250800D02*
X17223800Y-8200000D01*
X17173000Y-8149200D01*
X17122200Y-8200000D01*
X17173000Y-8250800D01*
X17173000Y-8950800D02*
X17223800Y-8900000D01*
X17173000Y-8849200D01*
X17122200Y-8900000D01*
X17173000Y-8950800D01*
X17173000Y-9650800D02*
X17223800Y-9600000D01*
X17173000Y-9549200D01*
X17122200Y-9600000D01*
X17173000Y-9650800D01*
X17173000Y-10350800D02*
X17223800Y-10300000D01*
X17173000Y-10249200D01*
X17122200Y-10300000D01*
X17173000Y-10350800D01*
X17173000Y-11050800D02*
X17223800Y-11000000D01*
X17173000Y-10949200D01*
X17122200Y-11000000D01*
X17173000Y-11050800D01*
X17173000Y-11750800D02*
X17223800Y-11700000D01*
X17173000Y-11649200D01*
X17122200Y-11700000D01*
X17173000Y-11750800D01*
X17173000Y-12450800D02*
X17223800Y-12400000D01*
X17173000Y-12349200D01*
X17122200Y-12400000D01*
X17173000Y-12450800D01*
X17173000Y-13150800D02*
X17223800Y-13100000D01*
X17173000Y-13049200D01*
X17122200Y-13100000D01*
X17173000Y-13150800D01*
X17173000Y-13850800D02*
X17223800Y-13800000D01*
X17173000Y-13749200D01*
X17122200Y-13800000D01*
X17173000Y-13850800D01*
X17427000Y-6150800D02*
X17477800Y-6100000D01*
X17427000Y-6049200D01*
X17376200Y-6100000D01*
X17427000Y-6150800D01*
X17427000Y-6850800D02*
X17477800Y-6800000D01*
X17427000Y-6749200D01*
X17376200Y-6800000D01*
X17427000Y-6850800D01*
X17427000Y-7550800D02*
X17477800Y-7500000D01*
X17427000Y-7449200D01*
X17376200Y-7500000D01*
X17427000Y-7550800D01*
X17427000Y-8250800D02*
X17477800Y-8200000D01*
X17427000Y-8149200D01*
X17376200Y-8200000D01*
X17427000Y-8250800D01*
X17427000Y-8950800D02*
X17477800Y-8900000D01*
X17427000Y-8849200D01*
X17376200Y-8900000D01*
X17427000Y-8950800D01*
X17427000Y-9650800D02*
X17477800Y-9600000D01*
X17427000Y-9549200D01*
X17376200Y-9600000D01*
X17427000Y-9650800D01*
X17427000Y-10350800D02*
X17477800Y-10300000D01*
X17427000Y-10249200D01*
X17376200Y-10300000D01*
X17427000Y-10350800D01*
X17427000Y-11050800D02*
X17477800Y-11000000D01*
X17427000Y-10949200D01*
X17376200Y-11000000D01*
X17427000Y-11050800D01*
X17427000Y-11750800D02*
X17477800Y-11700000D01*
X17427000Y-11649200D01*
X17376200Y-11700000D01*
X17427000Y-11750800D01*
X17427000Y-12450800D02*
X17477800Y-12400000D01*
X17427000Y-12349200D01*
X17376200Y-12400000D01*
X17427000Y-12450800D01*
X17427000Y-13150800D02*
X17477800Y-13100000D01*
X17427000Y-13049200D01*
X17376200Y-13100000D01*
X17427000Y-13150800D01*
X17427000Y-13850800D02*
X17477800Y-13800000D01*
X17427000Y-13749200D01*
X17376200Y-13800000D01*
X17427000Y-13850800D01*
X17681000Y-6150800D02*
X17731800Y-6100000D01*
X17681000Y-6049200D01*
X17630200Y-6100000D01*
X17681000Y-6150800D01*
X17681000Y-6850800D02*
X17731800Y-6800000D01*
X17681000Y-6749200D01*
X17630200Y-6800000D01*
X17681000Y-6850800D01*
X17681000Y-7550800D02*
X17731800Y-7500000D01*
X17681000Y-7449200D01*
X17630200Y-7500000D01*
X17681000Y-7550800D01*
X17681000Y-8250800D02*
X17731800Y-8200000D01*
X17681000Y-8149200D01*
X17630200Y-8200000D01*
X17681000Y-8250800D01*
X17681000Y-8950800D02*
X17731800Y-8900000D01*
X17681000Y-8849200D01*
X17630200Y-8900000D01*
X17681000Y-8950800D01*
X17681000Y-9650800D02*
X17731800Y-9600000D01*
X17681000Y-9549200D01*
X17630200Y-9600000D01*
X17681000Y-9650800D01*
X17681000Y-10350800D02*
X17731800Y-10300000D01*
X17681000Y-10249200D01*
X17630200Y-10300000D01*
X17681000Y-10350800D01*
X17681000Y-11050800D02*
X17731800Y-11000000D01*
X17681000Y-10949200D01*
X17630200Y-11000000D01*
X17681000Y-11050800D01*
X17681000Y-11750800D02*
X17731800Y-11700000D01*
X17681000Y-11649200D01*
X17630200Y-11700000D01*
X17681000Y-11750800D01*
X17681000Y-12450800D02*
X17731800Y-12400000D01*
X17681000Y-12349200D01*
X17630200Y-12400000D01*
X17681000Y-12450800D01*
X17681000Y-13150800D02*
X17731800Y-13100000D01*
X17681000Y-13049200D01*
X17630200Y-13100000D01*
X17681000Y-13150800D01*
X17681000Y-13850800D02*
X17731800Y-13800000D01*
X17681000Y-13749200D01*
X17630200Y-13800000D01*
X17681000Y-13850800D01*
X17953000Y-6150800D02*
X18003800Y-6100000D01*
X17953000Y-6049200D01*
X17902200Y-6100000D01*
X17953000Y-6150800D01*
X17953000Y-6850800D02*
X18003800Y-6800000D01*
X17953000Y-6749200D01*
X17902200Y-6800000D01*
X17953000Y-6850800D01*
X17953000Y-7550800D02*
X18003800Y-7500000D01*
X17953000Y-7449200D01*
X17902200Y-7500000D01*
X17953000Y-7550800D01*
X17953000Y-8250800D02*
X18003800Y-8200000D01*
X17953000Y-8149200D01*
X17902200Y-8200000D01*
X17953000Y-8250800D01*
X17953000Y-8950800D02*
X18003800Y-8900000D01*
X17953000Y-8849200D01*
X17902200Y-8900000D01*
X17953000Y-8950800D01*
X17953000Y-9650800D02*
X18003800Y-9600000D01*
X17953000Y-9549200D01*
X17902200Y-9600000D01*
X17953000Y-9650800D01*
X17953000Y-10350800D02*
X18003800Y-10300000D01*
X17953000Y-10249200D01*
X17902200Y-10300000D01*
X17953000Y-10350800D01*
X17953000Y-11050800D02*
X18003800Y-11000000D01*
X17953000Y-10949200D01*
X17902200Y-11000000D01*
X17953000Y-11050800D01*
X17953000Y-11750800D02*
X18003800Y-11700000D01*
X17953000Y-11649200D01*
X17902200Y-11700000D01*
X17953000Y-11750800D01*
X17953000Y-12450800D02*
X18003800Y-12400000D01*
X17953000Y-12349200D01*
X17902200Y-12400000D01*
X17953000Y-12450800D01*
X17953000Y-13150800D02*
X18003800Y-13100000D01*
X17953000Y-13049200D01*
X17902200Y-13100000D01*
X17953000Y-13150800D01*
X17953000Y-13850800D02*
X18003800Y-13800000D01*
X17953000Y-13749200D01*
X17902200Y-13800000D01*
X17953000Y-13850800D01*
X18207000Y-6150800D02*
X18257800Y-6100000D01*
X18207000Y-6049200D01*
X18156200Y-6100000D01*
X18207000Y-6150800D01*
X18207000Y-6850800D02*
X18257800Y-6800000D01*
X18207000Y-6749200D01*
X18156200Y-6800000D01*
X18207000Y-6850800D01*
X18207000Y-7550800D02*
X18257800Y-7500000D01*
X18207000Y-7449200D01*
X18156200Y-7500000D01*
X18207000Y-7550800D01*
X18207000Y-8250800D02*
X18257800Y-8200000D01*
X18207000Y-8149200D01*
X18156200Y-8200000D01*
X18207000Y-8250800D01*
X18207000Y-8950800D02*
X18257800Y-8900000D01*
X18207000Y-8849200D01*
X18156200Y-8900000D01*
X18207000Y-8950800D01*
X18207000Y-9650800D02*
X18257800Y-9600000D01*
X18207000Y-9549200D01*
X18156200Y-9600000D01*
X18207000Y-9650800D01*
X18207000Y-10350800D02*
X18257800Y-10300000D01*
X18207000Y-10249200D01*
X18156200Y-10300000D01*
X18207000Y-10350800D01*
X18207000Y-11050800D02*
X18257800Y-11000000D01*
X18207000Y-10949200D01*
X18156200Y-11000000D01*
X18207000Y-11050800D01*
X18207000Y-11750800D02*
X18257800Y-11700000D01*
X18207000Y-11649200D01*
X18156200Y-11700000D01*
X18207000Y-11750800D01*
X18207000Y-12450800D02*
X18257800Y-12400000D01*
X18207000Y-12349200D01*
X18156200Y-12400000D01*
X18207000Y-12450800D01*
X18207000Y-13150800D02*
X18257800Y-13100000D01*
X18207000Y-13049200D01*
X18156200Y-13100000D01*
X18207000Y-13150800D01*
X18207000Y-13850800D02*
X18257800Y-13800000D01*
X18207000Y-13749200D01*
X18156200Y-13800000D01*
X18207000Y-13850800D01*
X9645000Y-14060000D02*
X9805000Y-14220000D01*
X9805000Y-14060000D02*
X9645000Y-14220000D01*
X9805000Y-14140000D02*
G75*
G03X9805000Y-14140000I-80000J0D01*
G01*
X9635000Y-13625000D02*
X9815000Y-13805000D01*
X9815000Y-13625000D02*
X9635000Y-13805000D01*
X9725000Y-13625000D02*
X9725000Y-13805000D01*
X9635000Y-13715000D02*
X9815000Y-13715000D01*
X12029000Y-7415000D02*
X12329000Y-7715000D01*
X12329000Y-7415000D02*
X12029000Y-7715000D01*
X12285067Y-7671067D02*
X12285067Y-7458933D01*
X12072933Y-7458933D01*
X12072933Y-7671067D01*
X12285067Y-7671067D01*
X17948000Y-14112000D02*
X18248000Y-14412000D01*
X18248000Y-14112000D02*
X17948000Y-14412000D01*
X18204067Y-14368067D02*
X18204067Y-14155933D01*
X17991933Y-14155933D01*
X17991933Y-14368067D01*
X18204067Y-14368067D01*
D13*
X8866429Y-15070714D02*
X8866429Y-14770714D01*
X8937857Y-14770714D01*
X8980714Y-14785000D01*
X9009286Y-14813571D01*
X9023571Y-14842143D01*
X9037857Y-14899286D01*
X9037857Y-14942143D01*
X9023571Y-14999286D01*
X9009286Y-15027857D01*
X8980714Y-15056429D01*
X8937857Y-15070714D01*
X8866429Y-15070714D01*
X9166429Y-15070714D02*
X9166429Y-14870714D01*
X9166429Y-14927857D02*
X9180714Y-14899286D01*
X9195000Y-14885000D01*
X9223571Y-14870714D01*
X9252143Y-14870714D01*
X9352143Y-15070714D02*
X9352143Y-14870714D01*
X9352143Y-14770714D02*
X9337857Y-14785000D01*
X9352143Y-14799286D01*
X9366429Y-14785000D01*
X9352143Y-14770714D01*
X9352143Y-14799286D01*
X9537857Y-15070714D02*
X9509286Y-15056429D01*
X9495000Y-15027857D01*
X9495000Y-14770714D01*
X9695000Y-15070714D02*
X9666429Y-15056429D01*
X9652143Y-15027857D01*
X9652143Y-14770714D01*
X10037857Y-15070714D02*
X10037857Y-14770714D01*
X10137857Y-14985000D01*
X10237857Y-14770714D01*
X10237857Y-15070714D01*
X10509286Y-15070714D02*
X10509286Y-14913571D01*
X10495000Y-14885000D01*
X10466429Y-14870714D01*
X10409286Y-14870714D01*
X10380714Y-14885000D01*
X10509286Y-15056429D02*
X10480714Y-15070714D01*
X10409286Y-15070714D01*
X10380714Y-15056429D01*
X10366429Y-15027857D01*
X10366429Y-14999286D01*
X10380714Y-14970714D01*
X10409286Y-14956429D01*
X10480714Y-14956429D01*
X10509286Y-14942143D01*
X10652143Y-14870714D02*
X10652143Y-15170714D01*
X10652143Y-14885000D02*
X10680714Y-14870714D01*
X10737857Y-14870714D01*
X10766429Y-14885000D01*
X10780714Y-14899286D01*
X10795000Y-14927857D01*
X10795000Y-15013571D01*
X10780714Y-15042143D01*
X10766429Y-15056429D01*
X10737857Y-15070714D01*
X10680714Y-15070714D01*
X10652143Y-15056429D01*
X10923571Y-15042143D02*
X10937857Y-15056429D01*
X10923571Y-15070714D01*
X10909286Y-15056429D01*
X10923571Y-15042143D01*
X10923571Y-15070714D01*
X10923571Y-14885000D02*
X10937857Y-14899286D01*
X10923571Y-14913571D01*
X10909286Y-14899286D01*
X10923571Y-14885000D01*
X10923571Y-14913571D01*
X8565000Y-15550000D02*
X8595000Y-15580000D01*
X8595000Y-15550000D02*
X8565000Y-15580000D01*
X8923571Y-15400714D02*
X8952143Y-15400714D01*
X8980714Y-15415000D01*
X8995000Y-15429286D01*
X9009286Y-15457857D01*
X9023571Y-15515000D01*
X9023571Y-15586429D01*
X9009286Y-15643571D01*
X8995000Y-15672143D01*
X8980714Y-15686429D01*
X8952143Y-15700714D01*
X8923571Y-15700714D01*
X8895000Y-15686429D01*
X8880714Y-15672143D01*
X8866429Y-15643571D01*
X8852143Y-15586429D01*
X8852143Y-15515000D01*
X8866429Y-15457857D01*
X8880714Y-15429286D01*
X8895000Y-15415000D01*
X8923571Y-15400714D01*
X9152143Y-15672143D02*
X9166429Y-15686429D01*
X9152143Y-15700714D01*
X9137857Y-15686429D01*
X9152143Y-15672143D01*
X9152143Y-15700714D01*
X9266428Y-15400714D02*
X9452143Y-15400714D01*
X9352143Y-15515000D01*
X9395000Y-15515000D01*
X9423571Y-15529286D01*
X9437857Y-15543571D01*
X9452143Y-15572143D01*
X9452143Y-15643571D01*
X9437857Y-15672143D01*
X9423571Y-15686429D01*
X9395000Y-15700714D01*
X9309286Y-15700714D01*
X9280714Y-15686429D01*
X9266428Y-15672143D01*
X9637857Y-15400714D02*
X9666429Y-15400714D01*
X9695000Y-15415000D01*
X9709286Y-15429286D01*
X9723571Y-15457857D01*
X9737857Y-15515000D01*
X9737857Y-15586429D01*
X9723571Y-15643571D01*
X9709286Y-15672143D01*
X9695000Y-15686429D01*
X9666429Y-15700714D01*
X9637857Y-15700714D01*
X9609286Y-15686429D01*
X9595000Y-15672143D01*
X9580714Y-15643571D01*
X9566429Y-15586429D01*
X9566429Y-15515000D01*
X9580714Y-15457857D01*
X9595000Y-15429286D01*
X9609286Y-15415000D01*
X9637857Y-15400714D01*
X9866429Y-15700714D02*
X9866429Y-15500714D01*
X9866429Y-15529286D02*
X9880714Y-15515000D01*
X9909286Y-15500714D01*
X9952143Y-15500714D01*
X9980714Y-15515000D01*
X9995000Y-15543571D01*
X9995000Y-15700714D01*
X9995000Y-15543571D02*
X10009286Y-15515000D01*
X10037857Y-15500714D01*
X10080714Y-15500714D01*
X10109286Y-15515000D01*
X10123571Y-15543571D01*
X10123571Y-15700714D01*
X10266429Y-15700714D02*
X10266429Y-15500714D01*
X10266429Y-15529286D02*
X10280714Y-15515000D01*
X10309286Y-15500714D01*
X10352143Y-15500714D01*
X10380714Y-15515000D01*
X10395000Y-15543571D01*
X10395000Y-15700714D01*
X10395000Y-15543571D02*
X10409286Y-15515000D01*
X10437857Y-15500714D01*
X10480714Y-15500714D01*
X10509286Y-15515000D01*
X10523571Y-15543571D01*
X10523571Y-15700714D01*
X11109286Y-15386429D02*
X10852143Y-15772143D01*
X11495000Y-15400714D02*
X11523571Y-15400714D01*
X11552143Y-15415000D01*
X11566428Y-15429286D01*
X11580714Y-15457857D01*
X11595000Y-15515000D01*
X11595000Y-15586429D01*
X11580714Y-15643571D01*
X11566428Y-15672143D01*
X11552143Y-15686429D01*
X11523571Y-15700714D01*
X11495000Y-15700714D01*
X11466428Y-15686429D01*
X11452143Y-15672143D01*
X11437857Y-15643571D01*
X11423571Y-15586429D01*
X11423571Y-15515000D01*
X11437857Y-15457857D01*
X11452143Y-15429286D01*
X11466428Y-15415000D01*
X11495000Y-15400714D01*
X11723571Y-15672143D02*
X11737857Y-15686429D01*
X11723571Y-15700714D01*
X11709286Y-15686429D01*
X11723571Y-15672143D01*
X11723571Y-15700714D01*
X11923571Y-15400714D02*
X11952143Y-15400714D01*
X11980714Y-15415000D01*
X11995000Y-15429286D01*
X12009285Y-15457857D01*
X12023571Y-15515000D01*
X12023571Y-15586429D01*
X12009285Y-15643571D01*
X11995000Y-15672143D01*
X11980714Y-15686429D01*
X11952143Y-15700714D01*
X11923571Y-15700714D01*
X11895000Y-15686429D01*
X11880714Y-15672143D01*
X11866428Y-15643571D01*
X11852143Y-15586429D01*
X11852143Y-15515000D01*
X11866428Y-15457857D01*
X11880714Y-15429286D01*
X11895000Y-15415000D01*
X11923571Y-15400714D01*
X12309285Y-15700714D02*
X12137857Y-15700714D01*
X12223571Y-15700714D02*
X12223571Y-15400714D01*
X12195000Y-15443571D01*
X12166428Y-15472143D01*
X12137857Y-15486429D01*
X12423571Y-15429286D02*
X12437857Y-15415000D01*
X12466428Y-15400714D01*
X12537857Y-15400714D01*
X12566428Y-15415000D01*
X12580714Y-15429286D01*
X12595000Y-15457857D01*
X12595000Y-15486429D01*
X12580714Y-15529286D01*
X12409285Y-15700714D01*
X12595000Y-15700714D01*
X12709286Y-15400714D02*
X12709286Y-15457857D01*
X12823571Y-15400714D02*
X12823571Y-15457857D01*
X13266428Y-15815000D02*
X13252143Y-15800714D01*
X13223571Y-15757857D01*
X13209285Y-15729286D01*
X13195000Y-15686429D01*
X13180714Y-15615000D01*
X13180714Y-15557857D01*
X13195000Y-15486429D01*
X13209285Y-15443571D01*
X13223571Y-15415000D01*
X13252143Y-15372143D01*
X13266428Y-15357857D01*
X13523571Y-15400714D02*
X13380714Y-15400714D01*
X13366428Y-15543571D01*
X13380714Y-15529286D01*
X13409285Y-15515000D01*
X13480714Y-15515000D01*
X13509285Y-15529286D01*
X13523571Y-15543571D01*
X13537857Y-15572143D01*
X13537857Y-15643571D01*
X13523571Y-15672143D01*
X13509285Y-15686429D01*
X13480714Y-15700714D01*
X13409285Y-15700714D01*
X13380714Y-15686429D01*
X13366428Y-15672143D01*
X13723571Y-15400714D02*
X13752143Y-15400714D01*
X13780714Y-15415000D01*
X13795000Y-15429286D01*
X13809285Y-15457857D01*
X13823571Y-15515000D01*
X13823571Y-15586429D01*
X13809285Y-15643571D01*
X13795000Y-15672143D01*
X13780714Y-15686429D01*
X13752143Y-15700714D01*
X13723571Y-15700714D01*
X13695000Y-15686429D01*
X13680714Y-15672143D01*
X13666428Y-15643571D01*
X13652143Y-15586429D01*
X13652143Y-15515000D01*
X13666428Y-15457857D01*
X13680714Y-15429286D01*
X13695000Y-15415000D01*
X13723571Y-15400714D01*
X13966428Y-15700714D02*
X14023571Y-15700714D01*
X14052143Y-15686429D01*
X14066428Y-15672143D01*
X14095000Y-15629286D01*
X14109285Y-15572143D01*
X14109285Y-15457857D01*
X14095000Y-15429286D01*
X14080714Y-15415000D01*
X14052143Y-15400714D01*
X13995000Y-15400714D01*
X13966428Y-15415000D01*
X13952143Y-15429286D01*
X13937857Y-15457857D01*
X13937857Y-15529286D01*
X13952143Y-15557857D01*
X13966428Y-15572143D01*
X13995000Y-15586429D01*
X14052143Y-15586429D01*
X14080714Y-15572143D01*
X14095000Y-15557857D01*
X14109285Y-15529286D01*
X14466428Y-15700714D02*
X14466428Y-15400714D01*
X14595000Y-15700714D02*
X14595000Y-15543571D01*
X14580714Y-15515000D01*
X14552143Y-15500714D01*
X14509285Y-15500714D01*
X14480714Y-15515000D01*
X14466428Y-15529286D01*
X14780714Y-15700714D02*
X14752143Y-15686429D01*
X14737857Y-15672143D01*
X14723571Y-15643571D01*
X14723571Y-15557857D01*
X14737857Y-15529286D01*
X14752143Y-15515000D01*
X14780714Y-15500714D01*
X14823571Y-15500714D01*
X14852143Y-15515000D01*
X14866428Y-15529286D01*
X14880714Y-15557857D01*
X14880714Y-15643571D01*
X14866428Y-15672143D01*
X14852143Y-15686429D01*
X14823571Y-15700714D01*
X14780714Y-15700714D01*
X15052143Y-15700714D02*
X15023571Y-15686429D01*
X15009286Y-15657857D01*
X15009286Y-15400714D01*
X15280714Y-15686429D02*
X15252143Y-15700714D01*
X15195000Y-15700714D01*
X15166428Y-15686429D01*
X15152143Y-15657857D01*
X15152143Y-15543571D01*
X15166428Y-15515000D01*
X15195000Y-15500714D01*
X15252143Y-15500714D01*
X15280714Y-15515000D01*
X15295000Y-15543571D01*
X15295000Y-15572143D01*
X15152143Y-15600714D01*
X15409286Y-15686429D02*
X15437857Y-15700714D01*
X15495000Y-15700714D01*
X15523571Y-15686429D01*
X15537857Y-15657857D01*
X15537857Y-15643571D01*
X15523571Y-15615000D01*
X15495000Y-15600714D01*
X15452143Y-15600714D01*
X15423571Y-15586429D01*
X15409286Y-15557857D01*
X15409286Y-15543571D01*
X15423571Y-15515000D01*
X15452143Y-15500714D01*
X15495000Y-15500714D01*
X15523571Y-15515000D01*
X15637857Y-15815000D02*
X15652143Y-15800714D01*
X15680714Y-15757857D01*
X15695000Y-15729286D01*
X15709286Y-15686429D01*
X15723571Y-15615000D01*
X15723571Y-15557857D01*
X15709286Y-15486429D01*
X15695000Y-15443571D01*
X15680714Y-15415000D01*
X15652143Y-15372143D01*
X15637857Y-15357857D01*
X8595000Y-15961000D02*
G75*
G03X8595000Y-15961000I-19550J0D01*
G01*
X8923571Y-15796714D02*
X8952143Y-15796714D01*
X8980714Y-15811000D01*
X8995000Y-15825286D01*
X9009286Y-15853857D01*
X9023571Y-15911000D01*
X9023571Y-15982429D01*
X9009286Y-16039571D01*
X8995000Y-16068143D01*
X8980714Y-16082429D01*
X8952143Y-16096714D01*
X8923571Y-16096714D01*
X8895000Y-16082429D01*
X8880714Y-16068143D01*
X8866429Y-16039571D01*
X8852143Y-15982429D01*
X8852143Y-15911000D01*
X8866429Y-15853857D01*
X8880714Y-15825286D01*
X8895000Y-15811000D01*
X8923571Y-15796714D01*
X9152143Y-16068143D02*
X9166429Y-16082429D01*
X9152143Y-16096714D01*
X9137857Y-16082429D01*
X9152143Y-16068143D01*
X9152143Y-16096714D01*
X9266428Y-15796714D02*
X9452143Y-15796714D01*
X9352143Y-15911000D01*
X9395000Y-15911000D01*
X9423571Y-15925286D01*
X9437857Y-15939571D01*
X9452143Y-15968143D01*
X9452143Y-16039571D01*
X9437857Y-16068143D01*
X9423571Y-16082429D01*
X9395000Y-16096714D01*
X9309286Y-16096714D01*
X9280714Y-16082429D01*
X9266428Y-16068143D01*
X9595000Y-16096714D02*
X9652143Y-16096714D01*
X9680714Y-16082429D01*
X9695000Y-16068143D01*
X9723571Y-16025286D01*
X9737857Y-15968143D01*
X9737857Y-15853857D01*
X9723571Y-15825286D01*
X9709286Y-15811000D01*
X9680714Y-15796714D01*
X9623571Y-15796714D01*
X9595000Y-15811000D01*
X9580714Y-15825286D01*
X9566429Y-15853857D01*
X9566429Y-15925286D01*
X9580714Y-15953857D01*
X9595000Y-15968143D01*
X9623571Y-15982429D01*
X9680714Y-15982429D01*
X9709286Y-15968143D01*
X9723571Y-15953857D01*
X9737857Y-15925286D01*
X9866429Y-16096714D02*
X9866429Y-15896714D01*
X9866429Y-15925286D02*
X9880714Y-15911000D01*
X9909286Y-15896714D01*
X9952143Y-15896714D01*
X9980714Y-15911000D01*
X9995000Y-15939571D01*
X9995000Y-16096714D01*
X9995000Y-15939571D02*
X10009286Y-15911000D01*
X10037857Y-15896714D01*
X10080714Y-15896714D01*
X10109286Y-15911000D01*
X10123571Y-15939571D01*
X10123571Y-16096714D01*
X10266429Y-16096714D02*
X10266429Y-15896714D01*
X10266429Y-15925286D02*
X10280714Y-15911000D01*
X10309286Y-15896714D01*
X10352143Y-15896714D01*
X10380714Y-15911000D01*
X10395000Y-15939571D01*
X10395000Y-16096714D01*
X10395000Y-15939571D02*
X10409286Y-15911000D01*
X10437857Y-15896714D01*
X10480714Y-15896714D01*
X10509286Y-15911000D01*
X10523571Y-15939571D01*
X10523571Y-16096714D01*
X11109286Y-15782429D02*
X10852143Y-16168143D01*
X11495000Y-15796714D02*
X11523571Y-15796714D01*
X11552143Y-15811000D01*
X11566428Y-15825286D01*
X11580714Y-15853857D01*
X11595000Y-15911000D01*
X11595000Y-15982429D01*
X11580714Y-16039571D01*
X11566428Y-16068143D01*
X11552143Y-16082429D01*
X11523571Y-16096714D01*
X11495000Y-16096714D01*
X11466428Y-16082429D01*
X11452143Y-16068143D01*
X11437857Y-16039571D01*
X11423571Y-15982429D01*
X11423571Y-15911000D01*
X11437857Y-15853857D01*
X11452143Y-15825286D01*
X11466428Y-15811000D01*
X11495000Y-15796714D01*
X11723571Y-16068143D02*
X11737857Y-16082429D01*
X11723571Y-16096714D01*
X11709286Y-16082429D01*
X11723571Y-16068143D01*
X11723571Y-16096714D01*
X11923571Y-15796714D02*
X11952143Y-15796714D01*
X11980714Y-15811000D01*
X11995000Y-15825286D01*
X12009285Y-15853857D01*
X12023571Y-15911000D01*
X12023571Y-15982429D01*
X12009285Y-16039571D01*
X11995000Y-16068143D01*
X11980714Y-16082429D01*
X11952143Y-16096714D01*
X11923571Y-16096714D01*
X11895000Y-16082429D01*
X11880714Y-16068143D01*
X11866428Y-16039571D01*
X11852143Y-15982429D01*
X11852143Y-15911000D01*
X11866428Y-15853857D01*
X11880714Y-15825286D01*
X11895000Y-15811000D01*
X11923571Y-15796714D01*
X12309285Y-16096714D02*
X12137857Y-16096714D01*
X12223571Y-16096714D02*
X12223571Y-15796714D01*
X12195000Y-15839571D01*
X12166428Y-15868143D01*
X12137857Y-15882429D01*
X12580714Y-15796714D02*
X12437857Y-15796714D01*
X12423571Y-15939571D01*
X12437857Y-15925286D01*
X12466428Y-15911000D01*
X12537857Y-15911000D01*
X12566428Y-15925286D01*
X12580714Y-15939571D01*
X12595000Y-15968143D01*
X12595000Y-16039571D01*
X12580714Y-16068143D01*
X12566428Y-16082429D01*
X12537857Y-16096714D01*
X12466428Y-16096714D01*
X12437857Y-16082429D01*
X12423571Y-16068143D01*
X12709286Y-15796714D02*
X12709286Y-15853857D01*
X12823571Y-15796714D02*
X12823571Y-15853857D01*
X13266428Y-16211000D02*
X13252143Y-16196714D01*
X13223571Y-16153857D01*
X13209285Y-16125286D01*
X13195000Y-16082429D01*
X13180714Y-16011000D01*
X13180714Y-15953857D01*
X13195000Y-15882429D01*
X13209285Y-15839571D01*
X13223571Y-15811000D01*
X13252143Y-15768143D01*
X13266428Y-15753857D01*
X13509285Y-15896714D02*
X13509285Y-16096714D01*
X13437857Y-15782429D02*
X13366428Y-15996714D01*
X13552143Y-15996714D01*
X13895000Y-16096714D02*
X13895000Y-15796714D01*
X14023571Y-16096714D02*
X14023571Y-15939571D01*
X14009285Y-15911000D01*
X13980714Y-15896714D01*
X13937857Y-15896714D01*
X13909285Y-15911000D01*
X13895000Y-15925286D01*
X14209285Y-16096714D02*
X14180714Y-16082429D01*
X14166428Y-16068143D01*
X14152143Y-16039571D01*
X14152143Y-15953857D01*
X14166428Y-15925286D01*
X14180714Y-15911000D01*
X14209285Y-15896714D01*
X14252143Y-15896714D01*
X14280714Y-15911000D01*
X14295000Y-15925286D01*
X14309285Y-15953857D01*
X14309285Y-16039571D01*
X14295000Y-16068143D01*
X14280714Y-16082429D01*
X14252143Y-16096714D01*
X14209285Y-16096714D01*
X14480714Y-16096714D02*
X14452143Y-16082429D01*
X14437857Y-16053857D01*
X14437857Y-15796714D01*
X14709286Y-16082429D02*
X14680714Y-16096714D01*
X14623571Y-16096714D01*
X14595000Y-16082429D01*
X14580714Y-16053857D01*
X14580714Y-15939571D01*
X14595000Y-15911000D01*
X14623571Y-15896714D01*
X14680714Y-15896714D01*
X14709286Y-15911000D01*
X14723571Y-15939571D01*
X14723571Y-15968143D01*
X14580714Y-15996714D01*
X14837857Y-16082429D02*
X14866428Y-16096714D01*
X14923571Y-16096714D01*
X14952143Y-16082429D01*
X14966428Y-16053857D01*
X14966428Y-16039571D01*
X14952143Y-16011000D01*
X14923571Y-15996714D01*
X14880714Y-15996714D01*
X14852143Y-15982429D01*
X14837857Y-15953857D01*
X14837857Y-15939571D01*
X14852143Y-15911000D01*
X14880714Y-15896714D01*
X14923571Y-15896714D01*
X14952143Y-15911000D01*
X15066428Y-16211000D02*
X15080714Y-16196714D01*
X15109286Y-16153857D01*
X15123571Y-16125286D01*
X15137857Y-16082429D01*
X15152143Y-16011000D01*
X15152143Y-15953857D01*
X15137857Y-15882429D01*
X15123571Y-15839571D01*
X15109286Y-15811000D01*
X15080714Y-15768143D01*
X15066428Y-15753857D01*
X8565000Y-16327000D02*
X8565000Y-16387000D01*
X8535000Y-16357000D02*
X8595000Y-16357000D01*
X8923571Y-16192714D02*
X8952143Y-16192714D01*
X8980714Y-16207000D01*
X8995000Y-16221286D01*
X9009286Y-16249857D01*
X9023571Y-16307000D01*
X9023571Y-16378429D01*
X9009286Y-16435571D01*
X8995000Y-16464143D01*
X8980714Y-16478429D01*
X8952143Y-16492714D01*
X8923571Y-16492714D01*
X8895000Y-16478429D01*
X8880714Y-16464143D01*
X8866429Y-16435571D01*
X8852143Y-16378429D01*
X8852143Y-16307000D01*
X8866429Y-16249857D01*
X8880714Y-16221286D01*
X8895000Y-16207000D01*
X8923571Y-16192714D01*
X9152143Y-16464143D02*
X9166429Y-16478429D01*
X9152143Y-16492714D01*
X9137857Y-16478429D01*
X9152143Y-16464143D01*
X9152143Y-16492714D01*
X9423571Y-16192714D02*
X9366428Y-16192714D01*
X9337857Y-16207000D01*
X9323571Y-16221286D01*
X9295000Y-16264143D01*
X9280714Y-16321286D01*
X9280714Y-16435571D01*
X9295000Y-16464143D01*
X9309286Y-16478429D01*
X9337857Y-16492714D01*
X9395000Y-16492714D01*
X9423571Y-16478429D01*
X9437857Y-16464143D01*
X9452143Y-16435571D01*
X9452143Y-16364143D01*
X9437857Y-16335571D01*
X9423571Y-16321286D01*
X9395000Y-16307000D01*
X9337857Y-16307000D01*
X9309286Y-16321286D01*
X9295000Y-16335571D01*
X9280714Y-16364143D01*
X9637857Y-16192714D02*
X9666429Y-16192714D01*
X9695000Y-16207000D01*
X9709286Y-16221286D01*
X9723571Y-16249857D01*
X9737857Y-16307000D01*
X9737857Y-16378429D01*
X9723571Y-16435571D01*
X9709286Y-16464143D01*
X9695000Y-16478429D01*
X9666429Y-16492714D01*
X9637857Y-16492714D01*
X9609286Y-16478429D01*
X9595000Y-16464143D01*
X9580714Y-16435571D01*
X9566429Y-16378429D01*
X9566429Y-16307000D01*
X9580714Y-16249857D01*
X9595000Y-16221286D01*
X9609286Y-16207000D01*
X9637857Y-16192714D01*
X9866429Y-16492714D02*
X9866429Y-16292714D01*
X9866429Y-16321286D02*
X9880714Y-16307000D01*
X9909286Y-16292714D01*
X9952143Y-16292714D01*
X9980714Y-16307000D01*
X9995000Y-16335571D01*
X9995000Y-16492714D01*
X9995000Y-16335571D02*
X10009286Y-16307000D01*
X10037857Y-16292714D01*
X10080714Y-16292714D01*
X10109286Y-16307000D01*
X10123571Y-16335571D01*
X10123571Y-16492714D01*
X10266429Y-16492714D02*
X10266429Y-16292714D01*
X10266429Y-16321286D02*
X10280714Y-16307000D01*
X10309286Y-16292714D01*
X10352143Y-16292714D01*
X10380714Y-16307000D01*
X10395000Y-16335571D01*
X10395000Y-16492714D01*
X10395000Y-16335571D02*
X10409286Y-16307000D01*
X10437857Y-16292714D01*
X10480714Y-16292714D01*
X10509286Y-16307000D01*
X10523571Y-16335571D01*
X10523571Y-16492714D01*
X11109286Y-16178429D02*
X10852143Y-16564143D01*
X11495000Y-16192714D02*
X11523571Y-16192714D01*
X11552143Y-16207000D01*
X11566428Y-16221286D01*
X11580714Y-16249857D01*
X11595000Y-16307000D01*
X11595000Y-16378429D01*
X11580714Y-16435571D01*
X11566428Y-16464143D01*
X11552143Y-16478429D01*
X11523571Y-16492714D01*
X11495000Y-16492714D01*
X11466428Y-16478429D01*
X11452143Y-16464143D01*
X11437857Y-16435571D01*
X11423571Y-16378429D01*
X11423571Y-16307000D01*
X11437857Y-16249857D01*
X11452143Y-16221286D01*
X11466428Y-16207000D01*
X11495000Y-16192714D01*
X11723571Y-16464143D02*
X11737857Y-16478429D01*
X11723571Y-16492714D01*
X11709286Y-16478429D01*
X11723571Y-16464143D01*
X11723571Y-16492714D01*
X11923571Y-16192714D02*
X11952143Y-16192714D01*
X11980714Y-16207000D01*
X11995000Y-16221286D01*
X12009285Y-16249857D01*
X12023571Y-16307000D01*
X12023571Y-16378429D01*
X12009285Y-16435571D01*
X11995000Y-16464143D01*
X11980714Y-16478429D01*
X11952143Y-16492714D01*
X11923571Y-16492714D01*
X11895000Y-16478429D01*
X11880714Y-16464143D01*
X11866428Y-16435571D01*
X11852143Y-16378429D01*
X11852143Y-16307000D01*
X11866428Y-16249857D01*
X11880714Y-16221286D01*
X11895000Y-16207000D01*
X11923571Y-16192714D01*
X12137857Y-16221286D02*
X12152143Y-16207000D01*
X12180714Y-16192714D01*
X12252143Y-16192714D01*
X12280714Y-16207000D01*
X12295000Y-16221286D01*
X12309285Y-16249857D01*
X12309285Y-16278429D01*
X12295000Y-16321286D01*
X12123571Y-16492714D01*
X12309285Y-16492714D01*
X12566428Y-16292714D02*
X12566428Y-16492714D01*
X12495000Y-16178429D02*
X12423571Y-16392714D01*
X12609285Y-16392714D01*
X12709286Y-16192714D02*
X12709286Y-16249857D01*
X12823571Y-16192714D02*
X12823571Y-16249857D01*
X13266428Y-16607000D02*
X13252143Y-16592714D01*
X13223571Y-16549857D01*
X13209285Y-16521286D01*
X13195000Y-16478429D01*
X13180714Y-16407000D01*
X13180714Y-16349857D01*
X13195000Y-16278429D01*
X13209285Y-16235571D01*
X13223571Y-16207000D01*
X13252143Y-16164143D01*
X13266428Y-16149857D01*
X13537857Y-16492714D02*
X13366428Y-16492714D01*
X13452143Y-16492714D02*
X13452143Y-16192714D01*
X13423571Y-16235571D01*
X13395000Y-16264143D01*
X13366428Y-16278429D01*
X13723571Y-16192714D02*
X13752143Y-16192714D01*
X13780714Y-16207000D01*
X13795000Y-16221286D01*
X13809285Y-16249857D01*
X13823571Y-16307000D01*
X13823571Y-16378429D01*
X13809285Y-16435571D01*
X13795000Y-16464143D01*
X13780714Y-16478429D01*
X13752143Y-16492714D01*
X13723571Y-16492714D01*
X13695000Y-16478429D01*
X13680714Y-16464143D01*
X13666428Y-16435571D01*
X13652143Y-16378429D01*
X13652143Y-16307000D01*
X13666428Y-16249857D01*
X13680714Y-16221286D01*
X13695000Y-16207000D01*
X13723571Y-16192714D01*
X14180714Y-16492714D02*
X14180714Y-16192714D01*
X14309285Y-16492714D02*
X14309285Y-16335571D01*
X14295000Y-16307000D01*
X14266428Y-16292714D01*
X14223571Y-16292714D01*
X14195000Y-16307000D01*
X14180714Y-16321286D01*
X14495000Y-16492714D02*
X14466428Y-16478429D01*
X14452143Y-16464143D01*
X14437857Y-16435571D01*
X14437857Y-16349857D01*
X14452143Y-16321286D01*
X14466428Y-16307000D01*
X14495000Y-16292714D01*
X14537857Y-16292714D01*
X14566428Y-16307000D01*
X14580714Y-16321286D01*
X14595000Y-16349857D01*
X14595000Y-16435571D01*
X14580714Y-16464143D01*
X14566428Y-16478429D01*
X14537857Y-16492714D01*
X14495000Y-16492714D01*
X14766428Y-16492714D02*
X14737857Y-16478429D01*
X14723571Y-16449857D01*
X14723571Y-16192714D01*
X14995000Y-16478429D02*
X14966428Y-16492714D01*
X14909286Y-16492714D01*
X14880714Y-16478429D01*
X14866428Y-16449857D01*
X14866428Y-16335571D01*
X14880714Y-16307000D01*
X14909286Y-16292714D01*
X14966428Y-16292714D01*
X14995000Y-16307000D01*
X15009286Y-16335571D01*
X15009286Y-16364143D01*
X14866428Y-16392714D01*
X15123571Y-16478429D02*
X15152143Y-16492714D01*
X15209286Y-16492714D01*
X15237857Y-16478429D01*
X15252143Y-16449857D01*
X15252143Y-16435571D01*
X15237857Y-16407000D01*
X15209286Y-16392714D01*
X15166428Y-16392714D01*
X15137857Y-16378429D01*
X15123571Y-16349857D01*
X15123571Y-16335571D01*
X15137857Y-16307000D01*
X15166428Y-16292714D01*
X15209286Y-16292714D01*
X15237857Y-16307000D01*
X15352143Y-16607000D02*
X15366428Y-16592714D01*
X15395000Y-16549857D01*
X15409286Y-16521286D01*
X15423571Y-16478429D01*
X15437857Y-16407000D01*
X15437857Y-16349857D01*
X15423571Y-16278429D01*
X15409286Y-16235571D01*
X15395000Y-16207000D01*
X15366428Y-16164143D01*
X15352143Y-16149857D01*
X8581820Y-16784820D02*
X8581820Y-16721180D01*
X8518180Y-16721180D01*
X8518180Y-16784820D01*
X8581820Y-16784820D01*
X8923571Y-16588714D02*
X8952143Y-16588714D01*
X8980714Y-16603000D01*
X8995000Y-16617286D01*
X9009286Y-16645857D01*
X9023571Y-16703000D01*
X9023571Y-16774429D01*
X9009286Y-16831572D01*
X8995000Y-16860143D01*
X8980714Y-16874429D01*
X8952143Y-16888714D01*
X8923571Y-16888714D01*
X8895000Y-16874429D01*
X8880714Y-16860143D01*
X8866429Y-16831572D01*
X8852143Y-16774429D01*
X8852143Y-16703000D01*
X8866429Y-16645857D01*
X8880714Y-16617286D01*
X8895000Y-16603000D01*
X8923571Y-16588714D01*
X9152143Y-16860143D02*
X9166429Y-16874429D01*
X9152143Y-16888714D01*
X9137857Y-16874429D01*
X9152143Y-16860143D01*
X9152143Y-16888714D01*
X9309286Y-16888714D02*
X9366428Y-16888714D01*
X9395000Y-16874429D01*
X9409286Y-16860143D01*
X9437857Y-16817286D01*
X9452143Y-16760143D01*
X9452143Y-16645857D01*
X9437857Y-16617286D01*
X9423571Y-16603000D01*
X9395000Y-16588714D01*
X9337857Y-16588714D01*
X9309286Y-16603000D01*
X9295000Y-16617286D01*
X9280714Y-16645857D01*
X9280714Y-16717286D01*
X9295000Y-16745857D01*
X9309286Y-16760143D01*
X9337857Y-16774429D01*
X9395000Y-16774429D01*
X9423571Y-16760143D01*
X9437857Y-16745857D01*
X9452143Y-16717286D01*
X9637857Y-16588714D02*
X9666429Y-16588714D01*
X9695000Y-16603000D01*
X9709286Y-16617286D01*
X9723571Y-16645857D01*
X9737857Y-16703000D01*
X9737857Y-16774429D01*
X9723571Y-16831572D01*
X9709286Y-16860143D01*
X9695000Y-16874429D01*
X9666429Y-16888714D01*
X9637857Y-16888714D01*
X9609286Y-16874429D01*
X9595000Y-16860143D01*
X9580714Y-16831572D01*
X9566429Y-16774429D01*
X9566429Y-16703000D01*
X9580714Y-16645857D01*
X9595000Y-16617286D01*
X9609286Y-16603000D01*
X9637857Y-16588714D01*
X9866429Y-16888714D02*
X9866429Y-16688714D01*
X9866429Y-16717286D02*
X9880714Y-16703000D01*
X9909286Y-16688714D01*
X9952143Y-16688714D01*
X9980714Y-16703000D01*
X9995000Y-16731571D01*
X9995000Y-16888714D01*
X9995000Y-16731571D02*
X10009286Y-16703000D01*
X10037857Y-16688714D01*
X10080714Y-16688714D01*
X10109286Y-16703000D01*
X10123571Y-16731571D01*
X10123571Y-16888714D01*
X10266429Y-16888714D02*
X10266429Y-16688714D01*
X10266429Y-16717286D02*
X10280714Y-16703000D01*
X10309286Y-16688714D01*
X10352143Y-16688714D01*
X10380714Y-16703000D01*
X10395000Y-16731571D01*
X10395000Y-16888714D01*
X10395000Y-16731571D02*
X10409286Y-16703000D01*
X10437857Y-16688714D01*
X10480714Y-16688714D01*
X10509286Y-16703000D01*
X10523571Y-16731571D01*
X10523571Y-16888714D01*
X11109286Y-16574429D02*
X10852143Y-16960143D01*
X11495000Y-16588714D02*
X11523571Y-16588714D01*
X11552143Y-16603000D01*
X11566428Y-16617286D01*
X11580714Y-16645857D01*
X11595000Y-16703000D01*
X11595000Y-16774429D01*
X11580714Y-16831572D01*
X11566428Y-16860143D01*
X11552143Y-16874429D01*
X11523571Y-16888714D01*
X11495000Y-16888714D01*
X11466428Y-16874429D01*
X11452143Y-16860143D01*
X11437857Y-16831572D01*
X11423571Y-16774429D01*
X11423571Y-16703000D01*
X11437857Y-16645857D01*
X11452143Y-16617286D01*
X11466428Y-16603000D01*
X11495000Y-16588714D01*
X11723571Y-16860143D02*
X11737857Y-16874429D01*
X11723571Y-16888714D01*
X11709286Y-16874429D01*
X11723571Y-16860143D01*
X11723571Y-16888714D01*
X11923571Y-16588714D02*
X11952143Y-16588714D01*
X11980714Y-16603000D01*
X11995000Y-16617286D01*
X12009285Y-16645857D01*
X12023571Y-16703000D01*
X12023571Y-16774429D01*
X12009285Y-16831572D01*
X11995000Y-16860143D01*
X11980714Y-16874429D01*
X11952143Y-16888714D01*
X11923571Y-16888714D01*
X11895000Y-16874429D01*
X11880714Y-16860143D01*
X11866428Y-16831572D01*
X11852143Y-16774429D01*
X11852143Y-16703000D01*
X11866428Y-16645857D01*
X11880714Y-16617286D01*
X11895000Y-16603000D01*
X11923571Y-16588714D01*
X12123571Y-16588714D02*
X12309285Y-16588714D01*
X12209285Y-16703000D01*
X12252143Y-16703000D01*
X12280714Y-16717286D01*
X12295000Y-16731571D01*
X12309285Y-16760143D01*
X12309285Y-16831572D01*
X12295000Y-16860143D01*
X12280714Y-16874429D01*
X12252143Y-16888714D01*
X12166428Y-16888714D01*
X12137857Y-16874429D01*
X12123571Y-16860143D01*
X12580714Y-16588714D02*
X12437857Y-16588714D01*
X12423571Y-16731571D01*
X12437857Y-16717286D01*
X12466428Y-16703000D01*
X12537857Y-16703000D01*
X12566428Y-16717286D01*
X12580714Y-16731571D01*
X12595000Y-16760143D01*
X12595000Y-16831572D01*
X12580714Y-16860143D01*
X12566428Y-16874429D01*
X12537857Y-16888714D01*
X12466428Y-16888714D01*
X12437857Y-16874429D01*
X12423571Y-16860143D01*
X12709286Y-16588714D02*
X12709286Y-16645857D01*
X12823571Y-16588714D02*
X12823571Y-16645857D01*
X13266428Y-17003000D02*
X13252143Y-16988714D01*
X13223571Y-16945857D01*
X13209285Y-16917286D01*
X13195000Y-16874429D01*
X13180714Y-16803000D01*
X13180714Y-16745857D01*
X13195000Y-16674429D01*
X13209285Y-16631571D01*
X13223571Y-16603000D01*
X13252143Y-16560143D01*
X13266428Y-16545857D01*
X13366428Y-16617286D02*
X13380714Y-16603000D01*
X13409285Y-16588714D01*
X13480714Y-16588714D01*
X13509285Y-16603000D01*
X13523571Y-16617286D01*
X13537857Y-16645857D01*
X13537857Y-16674429D01*
X13523571Y-16717286D01*
X13352143Y-16888714D01*
X13537857Y-16888714D01*
X13895000Y-16888714D02*
X13895000Y-16588714D01*
X14023571Y-16888714D02*
X14023571Y-16731571D01*
X14009285Y-16703000D01*
X13980714Y-16688714D01*
X13937857Y-16688714D01*
X13909285Y-16703000D01*
X13895000Y-16717286D01*
X14209285Y-16888714D02*
X14180714Y-16874429D01*
X14166428Y-16860143D01*
X14152143Y-16831572D01*
X14152143Y-16745857D01*
X14166428Y-16717286D01*
X14180714Y-16703000D01*
X14209285Y-16688714D01*
X14252143Y-16688714D01*
X14280714Y-16703000D01*
X14295000Y-16717286D01*
X14309285Y-16745857D01*
X14309285Y-16831572D01*
X14295000Y-16860143D01*
X14280714Y-16874429D01*
X14252143Y-16888714D01*
X14209285Y-16888714D01*
X14480714Y-16888714D02*
X14452143Y-16874429D01*
X14437857Y-16845857D01*
X14437857Y-16588714D01*
X14709286Y-16874429D02*
X14680714Y-16888714D01*
X14623571Y-16888714D01*
X14595000Y-16874429D01*
X14580714Y-16845857D01*
X14580714Y-16731571D01*
X14595000Y-16703000D01*
X14623571Y-16688714D01*
X14680714Y-16688714D01*
X14709286Y-16703000D01*
X14723571Y-16731571D01*
X14723571Y-16760143D01*
X14580714Y-16788714D01*
X14837857Y-16874429D02*
X14866428Y-16888714D01*
X14923571Y-16888714D01*
X14952143Y-16874429D01*
X14966428Y-16845857D01*
X14966428Y-16831572D01*
X14952143Y-16803000D01*
X14923571Y-16788714D01*
X14880714Y-16788714D01*
X14852143Y-16774429D01*
X14837857Y-16745857D01*
X14837857Y-16731571D01*
X14852143Y-16703000D01*
X14880714Y-16688714D01*
X14923571Y-16688714D01*
X14952143Y-16703000D01*
X15066428Y-17003000D02*
X15080714Y-16988714D01*
X15109286Y-16945857D01*
X15123571Y-16917286D01*
X15137857Y-16874429D01*
X15152143Y-16803000D01*
X15152143Y-16745857D01*
X15137857Y-16674429D01*
X15123571Y-16631571D01*
X15109286Y-16603000D01*
X15080714Y-16560143D01*
X15066428Y-16545857D01*
X8544200Y-17199800D02*
X8595000Y-17149000D01*
X8544200Y-17098200D01*
X8493400Y-17149000D01*
X8544200Y-17199800D01*
X9023571Y-17284714D02*
X8852143Y-17284714D01*
X8937857Y-17284714D02*
X8937857Y-16984714D01*
X8909286Y-17027572D01*
X8880714Y-17056143D01*
X8852143Y-17070429D01*
X9152143Y-17256143D02*
X9166429Y-17270429D01*
X9152143Y-17284714D01*
X9137857Y-17270429D01*
X9152143Y-17256143D01*
X9152143Y-17284714D01*
X9352143Y-16984714D02*
X9380714Y-16984714D01*
X9409286Y-16999000D01*
X9423571Y-17013286D01*
X9437857Y-17041857D01*
X9452143Y-17099000D01*
X9452143Y-17170429D01*
X9437857Y-17227572D01*
X9423571Y-17256143D01*
X9409286Y-17270429D01*
X9380714Y-17284714D01*
X9352143Y-17284714D01*
X9323571Y-17270429D01*
X9309286Y-17256143D01*
X9295000Y-17227572D01*
X9280714Y-17170429D01*
X9280714Y-17099000D01*
X9295000Y-17041857D01*
X9309286Y-17013286D01*
X9323571Y-16999000D01*
X9352143Y-16984714D01*
X9566429Y-17013286D02*
X9580714Y-16999000D01*
X9609286Y-16984714D01*
X9680714Y-16984714D01*
X9709286Y-16999000D01*
X9723571Y-17013286D01*
X9737857Y-17041857D01*
X9737857Y-17070429D01*
X9723571Y-17113286D01*
X9552143Y-17284714D01*
X9737857Y-17284714D01*
X9866429Y-17284714D02*
X9866429Y-17084714D01*
X9866429Y-17113286D02*
X9880714Y-17099000D01*
X9909286Y-17084714D01*
X9952143Y-17084714D01*
X9980714Y-17099000D01*
X9995000Y-17127572D01*
X9995000Y-17284714D01*
X9995000Y-17127572D02*
X10009286Y-17099000D01*
X10037857Y-17084714D01*
X10080714Y-17084714D01*
X10109286Y-17099000D01*
X10123571Y-17127572D01*
X10123571Y-17284714D01*
X10266429Y-17284714D02*
X10266429Y-17084714D01*
X10266429Y-17113286D02*
X10280714Y-17099000D01*
X10309286Y-17084714D01*
X10352143Y-17084714D01*
X10380714Y-17099000D01*
X10395000Y-17127572D01*
X10395000Y-17284714D01*
X10395000Y-17127572D02*
X10409286Y-17099000D01*
X10437857Y-17084714D01*
X10480714Y-17084714D01*
X10509286Y-17099000D01*
X10523571Y-17127572D01*
X10523571Y-17284714D01*
X11109286Y-16970429D02*
X10852143Y-17356143D01*
X11495000Y-16984714D02*
X11523571Y-16984714D01*
X11552143Y-16999000D01*
X11566428Y-17013286D01*
X11580714Y-17041857D01*
X11595000Y-17099000D01*
X11595000Y-17170429D01*
X11580714Y-17227572D01*
X11566428Y-17256143D01*
X11552143Y-17270429D01*
X11523571Y-17284714D01*
X11495000Y-17284714D01*
X11466428Y-17270429D01*
X11452143Y-17256143D01*
X11437857Y-17227572D01*
X11423571Y-17170429D01*
X11423571Y-17099000D01*
X11437857Y-17041857D01*
X11452143Y-17013286D01*
X11466428Y-16999000D01*
X11495000Y-16984714D01*
X11723571Y-17256143D02*
X11737857Y-17270429D01*
X11723571Y-17284714D01*
X11709286Y-17270429D01*
X11723571Y-17256143D01*
X11723571Y-17284714D01*
X11923571Y-16984714D02*
X11952143Y-16984714D01*
X11980714Y-16999000D01*
X11995000Y-17013286D01*
X12009285Y-17041857D01*
X12023571Y-17099000D01*
X12023571Y-17170429D01*
X12009285Y-17227572D01*
X11995000Y-17256143D01*
X11980714Y-17270429D01*
X11952143Y-17284714D01*
X11923571Y-17284714D01*
X11895000Y-17270429D01*
X11880714Y-17256143D01*
X11866428Y-17227572D01*
X11852143Y-17170429D01*
X11852143Y-17099000D01*
X11866428Y-17041857D01*
X11880714Y-17013286D01*
X11895000Y-16999000D01*
X11923571Y-16984714D01*
X12280714Y-17084714D02*
X12280714Y-17284714D01*
X12209285Y-16970429D02*
X12137857Y-17184714D01*
X12323571Y-17184714D01*
X12495000Y-16984714D02*
X12523571Y-16984714D01*
X12552143Y-16999000D01*
X12566428Y-17013286D01*
X12580714Y-17041857D01*
X12595000Y-17099000D01*
X12595000Y-17170429D01*
X12580714Y-17227572D01*
X12566428Y-17256143D01*
X12552143Y-17270429D01*
X12523571Y-17284714D01*
X12495000Y-17284714D01*
X12466428Y-17270429D01*
X12452143Y-17256143D01*
X12437857Y-17227572D01*
X12423571Y-17170429D01*
X12423571Y-17099000D01*
X12437857Y-17041857D01*
X12452143Y-17013286D01*
X12466428Y-16999000D01*
X12495000Y-16984714D01*
X12709286Y-16984714D02*
X12709286Y-17041857D01*
X12823571Y-16984714D02*
X12823571Y-17041857D01*
X13266428Y-17399000D02*
X13252143Y-17384714D01*
X13223571Y-17341857D01*
X13209285Y-17313286D01*
X13195000Y-17270429D01*
X13180714Y-17199000D01*
X13180714Y-17141857D01*
X13195000Y-17070429D01*
X13209285Y-17027572D01*
X13223571Y-16999000D01*
X13252143Y-16956143D01*
X13266428Y-16941857D01*
X13366428Y-17013286D02*
X13380714Y-16999000D01*
X13409285Y-16984714D01*
X13480714Y-16984714D01*
X13509285Y-16999000D01*
X13523571Y-17013286D01*
X13537857Y-17041857D01*
X13537857Y-17070429D01*
X13523571Y-17113286D01*
X13352143Y-17284714D01*
X13537857Y-17284714D01*
X13823571Y-17284714D02*
X13652143Y-17284714D01*
X13737857Y-17284714D02*
X13737857Y-16984714D01*
X13709285Y-17027572D01*
X13680714Y-17056143D01*
X13652143Y-17070429D01*
X14109285Y-17284714D02*
X13937857Y-17284714D01*
X14023571Y-17284714D02*
X14023571Y-16984714D01*
X13995000Y-17027572D01*
X13966428Y-17056143D01*
X13937857Y-17070429D01*
X14466428Y-17284714D02*
X14466428Y-16984714D01*
X14595000Y-17284714D02*
X14595000Y-17127572D01*
X14580714Y-17099000D01*
X14552143Y-17084714D01*
X14509285Y-17084714D01*
X14480714Y-17099000D01*
X14466428Y-17113286D01*
X14780714Y-17284714D02*
X14752143Y-17270429D01*
X14737857Y-17256143D01*
X14723571Y-17227572D01*
X14723571Y-17141857D01*
X14737857Y-17113286D01*
X14752143Y-17099000D01*
X14780714Y-17084714D01*
X14823571Y-17084714D01*
X14852143Y-17099000D01*
X14866428Y-17113286D01*
X14880714Y-17141857D01*
X14880714Y-17227572D01*
X14866428Y-17256143D01*
X14852143Y-17270429D01*
X14823571Y-17284714D01*
X14780714Y-17284714D01*
X15052143Y-17284714D02*
X15023571Y-17270429D01*
X15009286Y-17241857D01*
X15009286Y-16984714D01*
X15280714Y-17270429D02*
X15252143Y-17284714D01*
X15195000Y-17284714D01*
X15166428Y-17270429D01*
X15152143Y-17241857D01*
X15152143Y-17127572D01*
X15166428Y-17099000D01*
X15195000Y-17084714D01*
X15252143Y-17084714D01*
X15280714Y-17099000D01*
X15295000Y-17127572D01*
X15295000Y-17156143D01*
X15152143Y-17184714D01*
X15409286Y-17270429D02*
X15437857Y-17284714D01*
X15495000Y-17284714D01*
X15523571Y-17270429D01*
X15537857Y-17241857D01*
X15537857Y-17227572D01*
X15523571Y-17199000D01*
X15495000Y-17184714D01*
X15452143Y-17184714D01*
X15423571Y-17170429D01*
X15409286Y-17141857D01*
X15409286Y-17127572D01*
X15423571Y-17099000D01*
X15452143Y-17084714D01*
X15495000Y-17084714D01*
X15523571Y-17099000D01*
X15637857Y-17399000D02*
X15652143Y-17384714D01*
X15680714Y-17341857D01*
X15695000Y-17313286D01*
X15709286Y-17270429D01*
X15723571Y-17199000D01*
X15723571Y-17141857D01*
X15709286Y-17070429D01*
X15695000Y-17027572D01*
X15680714Y-16999000D01*
X15652143Y-16956143D01*
X15637857Y-16941857D01*
X8435000Y-17465000D02*
X8595000Y-17625000D01*
X8595000Y-17465000D02*
X8435000Y-17625000D01*
X8595000Y-17545000D02*
G75*
G03X8595000Y-17545000I-80000J0D01*
G01*
X9023571Y-17680714D02*
X8852143Y-17680714D01*
X8937857Y-17680714D02*
X8937857Y-17380714D01*
X8909286Y-17423572D01*
X8880714Y-17452143D01*
X8852143Y-17466429D01*
X9152143Y-17652143D02*
X9166429Y-17666429D01*
X9152143Y-17680714D01*
X9137857Y-17666429D01*
X9152143Y-17652143D01*
X9152143Y-17680714D01*
X9423571Y-17380714D02*
X9366428Y-17380714D01*
X9337857Y-17395000D01*
X9323571Y-17409286D01*
X9295000Y-17452143D01*
X9280714Y-17509286D01*
X9280714Y-17623572D01*
X9295000Y-17652143D01*
X9309286Y-17666429D01*
X9337857Y-17680714D01*
X9395000Y-17680714D01*
X9423571Y-17666429D01*
X9437857Y-17652143D01*
X9452143Y-17623572D01*
X9452143Y-17552143D01*
X9437857Y-17523572D01*
X9423571Y-17509286D01*
X9395000Y-17495000D01*
X9337857Y-17495000D01*
X9309286Y-17509286D01*
X9295000Y-17523572D01*
X9280714Y-17552143D01*
X9637857Y-17380714D02*
X9666429Y-17380714D01*
X9695000Y-17395000D01*
X9709286Y-17409286D01*
X9723571Y-17437857D01*
X9737857Y-17495000D01*
X9737857Y-17566429D01*
X9723571Y-17623572D01*
X9709286Y-17652143D01*
X9695000Y-17666429D01*
X9666429Y-17680714D01*
X9637857Y-17680714D01*
X9609286Y-17666429D01*
X9595000Y-17652143D01*
X9580714Y-17623572D01*
X9566429Y-17566429D01*
X9566429Y-17495000D01*
X9580714Y-17437857D01*
X9595000Y-17409286D01*
X9609286Y-17395000D01*
X9637857Y-17380714D01*
X9866429Y-17680714D02*
X9866429Y-17480714D01*
X9866429Y-17509286D02*
X9880714Y-17495000D01*
X9909286Y-17480714D01*
X9952143Y-17480714D01*
X9980714Y-17495000D01*
X9995000Y-17523572D01*
X9995000Y-17680714D01*
X9995000Y-17523572D02*
X10009286Y-17495000D01*
X10037857Y-17480714D01*
X10080714Y-17480714D01*
X10109286Y-17495000D01*
X10123571Y-17523572D01*
X10123571Y-17680714D01*
X10266429Y-17680714D02*
X10266429Y-17480714D01*
X10266429Y-17509286D02*
X10280714Y-17495000D01*
X10309286Y-17480714D01*
X10352143Y-17480714D01*
X10380714Y-17495000D01*
X10395000Y-17523572D01*
X10395000Y-17680714D01*
X10395000Y-17523572D02*
X10409286Y-17495000D01*
X10437857Y-17480714D01*
X10480714Y-17480714D01*
X10509286Y-17495000D01*
X10523571Y-17523572D01*
X10523571Y-17680714D01*
X11109286Y-17366429D02*
X10852143Y-17752143D01*
X11495000Y-17380714D02*
X11523571Y-17380714D01*
X11552143Y-17395000D01*
X11566428Y-17409286D01*
X11580714Y-17437857D01*
X11595000Y-17495000D01*
X11595000Y-17566429D01*
X11580714Y-17623572D01*
X11566428Y-17652143D01*
X11552143Y-17666429D01*
X11523571Y-17680714D01*
X11495000Y-17680714D01*
X11466428Y-17666429D01*
X11452143Y-17652143D01*
X11437857Y-17623572D01*
X11423571Y-17566429D01*
X11423571Y-17495000D01*
X11437857Y-17437857D01*
X11452143Y-17409286D01*
X11466428Y-17395000D01*
X11495000Y-17380714D01*
X11723571Y-17652143D02*
X11737857Y-17666429D01*
X11723571Y-17680714D01*
X11709286Y-17666429D01*
X11723571Y-17652143D01*
X11723571Y-17680714D01*
X11923571Y-17380714D02*
X11952143Y-17380714D01*
X11980714Y-17395000D01*
X11995000Y-17409286D01*
X12009285Y-17437857D01*
X12023571Y-17495000D01*
X12023571Y-17566429D01*
X12009285Y-17623572D01*
X11995000Y-17652143D01*
X11980714Y-17666429D01*
X11952143Y-17680714D01*
X11923571Y-17680714D01*
X11895000Y-17666429D01*
X11880714Y-17652143D01*
X11866428Y-17623572D01*
X11852143Y-17566429D01*
X11852143Y-17495000D01*
X11866428Y-17437857D01*
X11880714Y-17409286D01*
X11895000Y-17395000D01*
X11923571Y-17380714D01*
X12280714Y-17380714D02*
X12223571Y-17380714D01*
X12195000Y-17395000D01*
X12180714Y-17409286D01*
X12152143Y-17452143D01*
X12137857Y-17509286D01*
X12137857Y-17623572D01*
X12152143Y-17652143D01*
X12166428Y-17666429D01*
X12195000Y-17680714D01*
X12252143Y-17680714D01*
X12280714Y-17666429D01*
X12295000Y-17652143D01*
X12309285Y-17623572D01*
X12309285Y-17552143D01*
X12295000Y-17523572D01*
X12280714Y-17509286D01*
X12252143Y-17495000D01*
X12195000Y-17495000D01*
X12166428Y-17509286D01*
X12152143Y-17523572D01*
X12137857Y-17552143D01*
X12409285Y-17380714D02*
X12595000Y-17380714D01*
X12495000Y-17495000D01*
X12537857Y-17495000D01*
X12566428Y-17509286D01*
X12580714Y-17523572D01*
X12595000Y-17552143D01*
X12595000Y-17623572D01*
X12580714Y-17652143D01*
X12566428Y-17666429D01*
X12537857Y-17680714D01*
X12452143Y-17680714D01*
X12423571Y-17666429D01*
X12409285Y-17652143D01*
X12709286Y-17380714D02*
X12709286Y-17437857D01*
X12823571Y-17380714D02*
X12823571Y-17437857D01*
X13266428Y-17795000D02*
X13252143Y-17780714D01*
X13223571Y-17737857D01*
X13209285Y-17709286D01*
X13195000Y-17666429D01*
X13180714Y-17595000D01*
X13180714Y-17537857D01*
X13195000Y-17466429D01*
X13209285Y-17423572D01*
X13223571Y-17395000D01*
X13252143Y-17352143D01*
X13266428Y-17337857D01*
X13537857Y-17680714D02*
X13366428Y-17680714D01*
X13452143Y-17680714D02*
X13452143Y-17380714D01*
X13423571Y-17423572D01*
X13395000Y-17452143D01*
X13366428Y-17466429D01*
X13895000Y-17680714D02*
X13895000Y-17380714D01*
X14023571Y-17680714D02*
X14023571Y-17523572D01*
X14009285Y-17495000D01*
X13980714Y-17480714D01*
X13937857Y-17480714D01*
X13909285Y-17495000D01*
X13895000Y-17509286D01*
X14209285Y-17680714D02*
X14180714Y-17666429D01*
X14166428Y-17652143D01*
X14152143Y-17623572D01*
X14152143Y-17537857D01*
X14166428Y-17509286D01*
X14180714Y-17495000D01*
X14209285Y-17480714D01*
X14252143Y-17480714D01*
X14280714Y-17495000D01*
X14295000Y-17509286D01*
X14309285Y-17537857D01*
X14309285Y-17623572D01*
X14295000Y-17652143D01*
X14280714Y-17666429D01*
X14252143Y-17680714D01*
X14209285Y-17680714D01*
X14480714Y-17680714D02*
X14452143Y-17666429D01*
X14437857Y-17637857D01*
X14437857Y-17380714D01*
X14709286Y-17666429D02*
X14680714Y-17680714D01*
X14623571Y-17680714D01*
X14595000Y-17666429D01*
X14580714Y-17637857D01*
X14580714Y-17523572D01*
X14595000Y-17495000D01*
X14623571Y-17480714D01*
X14680714Y-17480714D01*
X14709286Y-17495000D01*
X14723571Y-17523572D01*
X14723571Y-17552143D01*
X14580714Y-17580714D01*
X14823571Y-17795000D02*
X14837857Y-17780714D01*
X14866428Y-17737857D01*
X14880714Y-17709286D01*
X14895000Y-17666429D01*
X14909286Y-17595000D01*
X14909286Y-17537857D01*
X14895000Y-17466429D01*
X14880714Y-17423572D01*
X14866428Y-17395000D01*
X14837857Y-17352143D01*
X14823571Y-17337857D01*
X8415000Y-17851000D02*
X8595000Y-18031000D01*
X8595000Y-17851000D02*
X8415000Y-18031000D01*
X8505000Y-17851000D02*
X8505000Y-18031000D01*
X8415000Y-17941000D02*
X8595000Y-17941000D01*
X9023571Y-18076714D02*
X8852143Y-18076714D01*
X8937857Y-18076714D02*
X8937857Y-17776714D01*
X8909286Y-17819572D01*
X8880714Y-17848143D01*
X8852143Y-17862429D01*
X9152143Y-18048143D02*
X9166429Y-18062429D01*
X9152143Y-18076714D01*
X9137857Y-18062429D01*
X9152143Y-18048143D01*
X9152143Y-18076714D01*
X9337857Y-17905286D02*
X9309286Y-17891000D01*
X9295000Y-17876714D01*
X9280714Y-17848143D01*
X9280714Y-17833857D01*
X9295000Y-17805286D01*
X9309286Y-17791000D01*
X9337857Y-17776714D01*
X9395000Y-17776714D01*
X9423571Y-17791000D01*
X9437857Y-17805286D01*
X9452143Y-17833857D01*
X9452143Y-17848143D01*
X9437857Y-17876714D01*
X9423571Y-17891000D01*
X9395000Y-17905286D01*
X9337857Y-17905286D01*
X9309286Y-17919572D01*
X9295000Y-17933857D01*
X9280714Y-17962429D01*
X9280714Y-18019572D01*
X9295000Y-18048143D01*
X9309286Y-18062429D01*
X9337857Y-18076714D01*
X9395000Y-18076714D01*
X9423571Y-18062429D01*
X9437857Y-18048143D01*
X9452143Y-18019572D01*
X9452143Y-17962429D01*
X9437857Y-17933857D01*
X9423571Y-17919572D01*
X9395000Y-17905286D01*
X9637857Y-17776714D02*
X9666429Y-17776714D01*
X9695000Y-17791000D01*
X9709286Y-17805286D01*
X9723571Y-17833857D01*
X9737857Y-17891000D01*
X9737857Y-17962429D01*
X9723571Y-18019572D01*
X9709286Y-18048143D01*
X9695000Y-18062429D01*
X9666429Y-18076714D01*
X9637857Y-18076714D01*
X9609286Y-18062429D01*
X9595000Y-18048143D01*
X9580714Y-18019572D01*
X9566429Y-17962429D01*
X9566429Y-17891000D01*
X9580714Y-17833857D01*
X9595000Y-17805286D01*
X9609286Y-17791000D01*
X9637857Y-17776714D01*
X9866429Y-18076714D02*
X9866429Y-17876714D01*
X9866429Y-17905286D02*
X9880714Y-17891000D01*
X9909286Y-17876714D01*
X9952143Y-17876714D01*
X9980714Y-17891000D01*
X9995000Y-17919572D01*
X9995000Y-18076714D01*
X9995000Y-17919572D02*
X10009286Y-17891000D01*
X10037857Y-17876714D01*
X10080714Y-17876714D01*
X10109286Y-17891000D01*
X10123571Y-17919572D01*
X10123571Y-18076714D01*
X10266429Y-18076714D02*
X10266429Y-17876714D01*
X10266429Y-17905286D02*
X10280714Y-17891000D01*
X10309286Y-17876714D01*
X10352143Y-17876714D01*
X10380714Y-17891000D01*
X10395000Y-17919572D01*
X10395000Y-18076714D01*
X10395000Y-17919572D02*
X10409286Y-17891000D01*
X10437857Y-17876714D01*
X10480714Y-17876714D01*
X10509286Y-17891000D01*
X10523571Y-17919572D01*
X10523571Y-18076714D01*
X11109286Y-17762429D02*
X10852143Y-18148143D01*
X11495000Y-17776714D02*
X11523571Y-17776714D01*
X11552143Y-17791000D01*
X11566428Y-17805286D01*
X11580714Y-17833857D01*
X11595000Y-17891000D01*
X11595000Y-17962429D01*
X11580714Y-18019572D01*
X11566428Y-18048143D01*
X11552143Y-18062429D01*
X11523571Y-18076714D01*
X11495000Y-18076714D01*
X11466428Y-18062429D01*
X11452143Y-18048143D01*
X11437857Y-18019572D01*
X11423571Y-17962429D01*
X11423571Y-17891000D01*
X11437857Y-17833857D01*
X11452143Y-17805286D01*
X11466428Y-17791000D01*
X11495000Y-17776714D01*
X11723571Y-18048143D02*
X11737857Y-18062429D01*
X11723571Y-18076714D01*
X11709286Y-18062429D01*
X11723571Y-18048143D01*
X11723571Y-18076714D01*
X11923571Y-17776714D02*
X11952143Y-17776714D01*
X11980714Y-17791000D01*
X11995000Y-17805286D01*
X12009285Y-17833857D01*
X12023571Y-17891000D01*
X12023571Y-17962429D01*
X12009285Y-18019572D01*
X11995000Y-18048143D01*
X11980714Y-18062429D01*
X11952143Y-18076714D01*
X11923571Y-18076714D01*
X11895000Y-18062429D01*
X11880714Y-18048143D01*
X11866428Y-18019572D01*
X11852143Y-17962429D01*
X11852143Y-17891000D01*
X11866428Y-17833857D01*
X11880714Y-17805286D01*
X11895000Y-17791000D01*
X11923571Y-17776714D01*
X12123571Y-17776714D02*
X12323571Y-17776714D01*
X12195000Y-18076714D01*
X12595000Y-18076714D02*
X12423571Y-18076714D01*
X12509285Y-18076714D02*
X12509285Y-17776714D01*
X12480714Y-17819572D01*
X12452143Y-17848143D01*
X12423571Y-17862429D01*
X12709286Y-17776714D02*
X12709286Y-17833857D01*
X12823571Y-17776714D02*
X12823571Y-17833857D01*
X13266428Y-18191000D02*
X13252143Y-18176714D01*
X13223571Y-18133857D01*
X13209285Y-18105286D01*
X13195000Y-18062429D01*
X13180714Y-17991000D01*
X13180714Y-17933857D01*
X13195000Y-17862429D01*
X13209285Y-17819572D01*
X13223571Y-17791000D01*
X13252143Y-17748143D01*
X13266428Y-17733857D01*
X13537857Y-18076714D02*
X13366428Y-18076714D01*
X13452143Y-18076714D02*
X13452143Y-17776714D01*
X13423571Y-17819572D01*
X13395000Y-17848143D01*
X13366428Y-17862429D01*
X13895000Y-18076714D02*
X13895000Y-17776714D01*
X14023571Y-18076714D02*
X14023571Y-17919572D01*
X14009285Y-17891000D01*
X13980714Y-17876714D01*
X13937857Y-17876714D01*
X13909285Y-17891000D01*
X13895000Y-17905286D01*
X14209285Y-18076714D02*
X14180714Y-18062429D01*
X14166428Y-18048143D01*
X14152143Y-18019572D01*
X14152143Y-17933857D01*
X14166428Y-17905286D01*
X14180714Y-17891000D01*
X14209285Y-17876714D01*
X14252143Y-17876714D01*
X14280714Y-17891000D01*
X14295000Y-17905286D01*
X14309285Y-17933857D01*
X14309285Y-18019572D01*
X14295000Y-18048143D01*
X14280714Y-18062429D01*
X14252143Y-18076714D01*
X14209285Y-18076714D01*
X14480714Y-18076714D02*
X14452143Y-18062429D01*
X14437857Y-18033857D01*
X14437857Y-17776714D01*
X14709286Y-18062429D02*
X14680714Y-18076714D01*
X14623571Y-18076714D01*
X14595000Y-18062429D01*
X14580714Y-18033857D01*
X14580714Y-17919572D01*
X14595000Y-17891000D01*
X14623571Y-17876714D01*
X14680714Y-17876714D01*
X14709286Y-17891000D01*
X14723571Y-17919572D01*
X14723571Y-17948143D01*
X14580714Y-17976714D01*
X14823571Y-18191000D02*
X14837857Y-18176714D01*
X14866428Y-18133857D01*
X14880714Y-18105286D01*
X14895000Y-18062429D01*
X14909286Y-17991000D01*
X14909286Y-17933857D01*
X14895000Y-17862429D01*
X14880714Y-17819572D01*
X14866428Y-17791000D01*
X14837857Y-17748143D01*
X14823571Y-17733857D01*
X8295000Y-18187000D02*
X8595000Y-18487000D01*
X8595000Y-18187000D02*
X8295000Y-18487000D01*
X8551067Y-18443067D02*
X8551067Y-18230933D01*
X8338933Y-18230933D01*
X8338933Y-18443067D01*
X8551067Y-18443067D01*
X8837857Y-18172714D02*
X9023571Y-18172714D01*
X8923571Y-18287000D01*
X8966429Y-18287000D01*
X8995000Y-18301286D01*
X9009286Y-18315572D01*
X9023571Y-18344143D01*
X9023571Y-18415572D01*
X9009286Y-18444143D01*
X8995000Y-18458429D01*
X8966429Y-18472714D01*
X8880714Y-18472714D01*
X8852143Y-18458429D01*
X8837857Y-18444143D01*
X9152143Y-18444143D02*
X9166429Y-18458429D01*
X9152143Y-18472714D01*
X9137857Y-18458429D01*
X9152143Y-18444143D01*
X9152143Y-18472714D01*
X9352143Y-18172714D02*
X9380714Y-18172714D01*
X9409286Y-18187000D01*
X9423571Y-18201286D01*
X9437857Y-18229857D01*
X9452143Y-18287000D01*
X9452143Y-18358429D01*
X9437857Y-18415572D01*
X9423571Y-18444143D01*
X9409286Y-18458429D01*
X9380714Y-18472714D01*
X9352143Y-18472714D01*
X9323571Y-18458429D01*
X9309286Y-18444143D01*
X9295000Y-18415572D01*
X9280714Y-18358429D01*
X9280714Y-18287000D01*
X9295000Y-18229857D01*
X9309286Y-18201286D01*
X9323571Y-18187000D01*
X9352143Y-18172714D01*
X9637857Y-18172714D02*
X9666429Y-18172714D01*
X9695000Y-18187000D01*
X9709286Y-18201286D01*
X9723571Y-18229857D01*
X9737857Y-18287000D01*
X9737857Y-18358429D01*
X9723571Y-18415572D01*
X9709286Y-18444143D01*
X9695000Y-18458429D01*
X9666429Y-18472714D01*
X9637857Y-18472714D01*
X9609286Y-18458429D01*
X9595000Y-18444143D01*
X9580714Y-18415572D01*
X9566429Y-18358429D01*
X9566429Y-18287000D01*
X9580714Y-18229857D01*
X9595000Y-18201286D01*
X9609286Y-18187000D01*
X9637857Y-18172714D01*
X9866429Y-18472714D02*
X9866429Y-18272714D01*
X9866429Y-18301286D02*
X9880714Y-18287000D01*
X9909286Y-18272714D01*
X9952143Y-18272714D01*
X9980714Y-18287000D01*
X9995000Y-18315572D01*
X9995000Y-18472714D01*
X9995000Y-18315572D02*
X10009286Y-18287000D01*
X10037857Y-18272714D01*
X10080714Y-18272714D01*
X10109286Y-18287000D01*
X10123571Y-18315572D01*
X10123571Y-18472714D01*
X10266429Y-18472714D02*
X10266429Y-18272714D01*
X10266429Y-18301286D02*
X10280714Y-18287000D01*
X10309286Y-18272714D01*
X10352143Y-18272714D01*
X10380714Y-18287000D01*
X10395000Y-18315572D01*
X10395000Y-18472714D01*
X10395000Y-18315572D02*
X10409286Y-18287000D01*
X10437857Y-18272714D01*
X10480714Y-18272714D01*
X10509286Y-18287000D01*
X10523571Y-18315572D01*
X10523571Y-18472714D01*
X11109286Y-18158429D02*
X10852143Y-18544143D01*
X11495000Y-18172714D02*
X11523571Y-18172714D01*
X11552143Y-18187000D01*
X11566428Y-18201286D01*
X11580714Y-18229857D01*
X11595000Y-18287000D01*
X11595000Y-18358429D01*
X11580714Y-18415572D01*
X11566428Y-18444143D01*
X11552143Y-18458429D01*
X11523571Y-18472714D01*
X11495000Y-18472714D01*
X11466428Y-18458429D01*
X11452143Y-18444143D01*
X11437857Y-18415572D01*
X11423571Y-18358429D01*
X11423571Y-18287000D01*
X11437857Y-18229857D01*
X11452143Y-18201286D01*
X11466428Y-18187000D01*
X11495000Y-18172714D01*
X11723571Y-18444143D02*
X11737857Y-18458429D01*
X11723571Y-18472714D01*
X11709286Y-18458429D01*
X11723571Y-18444143D01*
X11723571Y-18472714D01*
X12023571Y-18472714D02*
X11852143Y-18472714D01*
X11937857Y-18472714D02*
X11937857Y-18172714D01*
X11909285Y-18215572D01*
X11880714Y-18244143D01*
X11852143Y-18258429D01*
X12309285Y-18472714D02*
X12137857Y-18472714D01*
X12223571Y-18472714D02*
X12223571Y-18172714D01*
X12195000Y-18215572D01*
X12166428Y-18244143D01*
X12137857Y-18258429D01*
X12480714Y-18301286D02*
X12452143Y-18287000D01*
X12437857Y-18272714D01*
X12423571Y-18244143D01*
X12423571Y-18229857D01*
X12437857Y-18201286D01*
X12452143Y-18187000D01*
X12480714Y-18172714D01*
X12537857Y-18172714D01*
X12566428Y-18187000D01*
X12580714Y-18201286D01*
X12595000Y-18229857D01*
X12595000Y-18244143D01*
X12580714Y-18272714D01*
X12566428Y-18287000D01*
X12537857Y-18301286D01*
X12480714Y-18301286D01*
X12452143Y-18315572D01*
X12437857Y-18329857D01*
X12423571Y-18358429D01*
X12423571Y-18415572D01*
X12437857Y-18444143D01*
X12452143Y-18458429D01*
X12480714Y-18472714D01*
X12537857Y-18472714D01*
X12566428Y-18458429D01*
X12580714Y-18444143D01*
X12595000Y-18415572D01*
X12595000Y-18358429D01*
X12580714Y-18329857D01*
X12566428Y-18315572D01*
X12537857Y-18301286D01*
X12709286Y-18172714D02*
X12709286Y-18229857D01*
X12823571Y-18172714D02*
X12823571Y-18229857D01*
X13266428Y-18587000D02*
X13252143Y-18572714D01*
X13223571Y-18529857D01*
X13209285Y-18501286D01*
X13195000Y-18458429D01*
X13180714Y-18387000D01*
X13180714Y-18329857D01*
X13195000Y-18258429D01*
X13209285Y-18215572D01*
X13223571Y-18187000D01*
X13252143Y-18144143D01*
X13266428Y-18129857D01*
X13366428Y-18201286D02*
X13380714Y-18187000D01*
X13409285Y-18172714D01*
X13480714Y-18172714D01*
X13509285Y-18187000D01*
X13523571Y-18201286D01*
X13537857Y-18229857D01*
X13537857Y-18258429D01*
X13523571Y-18301286D01*
X13352143Y-18472714D01*
X13537857Y-18472714D01*
X13895000Y-18472714D02*
X13895000Y-18172714D01*
X14023571Y-18472714D02*
X14023571Y-18315572D01*
X14009285Y-18287000D01*
X13980714Y-18272714D01*
X13937857Y-18272714D01*
X13909285Y-18287000D01*
X13895000Y-18301286D01*
X14209285Y-18472714D02*
X14180714Y-18458429D01*
X14166428Y-18444143D01*
X14152143Y-18415572D01*
X14152143Y-18329857D01*
X14166428Y-18301286D01*
X14180714Y-18287000D01*
X14209285Y-18272714D01*
X14252143Y-18272714D01*
X14280714Y-18287000D01*
X14295000Y-18301286D01*
X14309285Y-18329857D01*
X14309285Y-18415572D01*
X14295000Y-18444143D01*
X14280714Y-18458429D01*
X14252143Y-18472714D01*
X14209285Y-18472714D01*
X14480714Y-18472714D02*
X14452143Y-18458429D01*
X14437857Y-18429857D01*
X14437857Y-18172714D01*
X14709286Y-18458429D02*
X14680714Y-18472714D01*
X14623571Y-18472714D01*
X14595000Y-18458429D01*
X14580714Y-18429857D01*
X14580714Y-18315572D01*
X14595000Y-18287000D01*
X14623571Y-18272714D01*
X14680714Y-18272714D01*
X14709286Y-18287000D01*
X14723571Y-18315572D01*
X14723571Y-18344143D01*
X14580714Y-18372714D01*
X14837857Y-18458429D02*
X14866428Y-18472714D01*
X14923571Y-18472714D01*
X14952143Y-18458429D01*
X14966428Y-18429857D01*
X14966428Y-18415572D01*
X14952143Y-18387000D01*
X14923571Y-18372714D01*
X14880714Y-18372714D01*
X14852143Y-18358429D01*
X14837857Y-18329857D01*
X14837857Y-18315572D01*
X14852143Y-18287000D01*
X14880714Y-18272714D01*
X14923571Y-18272714D01*
X14952143Y-18287000D01*
X15066428Y-18587000D02*
X15080714Y-18572714D01*
X15109286Y-18529857D01*
X15123571Y-18501286D01*
X15137857Y-18458429D01*
X15152143Y-18387000D01*
X15152143Y-18329857D01*
X15137857Y-18258429D01*
X15123571Y-18215572D01*
X15109286Y-18187000D01*
X15080714Y-18144143D01*
X15066428Y-18129857D01*
M02*
